<svg version="1.1" xmlns="http://www.w3.org/2000/svg" viewBox="0 0 391.08909367032606 137.2316913987088" width="782.1781873406521" height="274.4633827974176">
  <rect x="0" y="0" width="391.08909367032606" height="137.2316913987088" fill="#ffffff"></rect><g stroke-linecap="round" transform="translate(10 35.57415641169791) rotate(0 20.698154666493906 21.915693176288187)"><path d="M0 0 C14.07 0, 28.14 0, 41.4 0 M0 0 C16.03 0, 32.05 0, 41.4 0 M41.4 0 C41.4 9.47, 41.4 18.94, 41.4 43.83 M41.4 0 C41.4 8.87, 41.4 17.75, 41.4 43.83 M41.4 43.83 C32.23 43.83, 23.06 43.83, 0 43.83 M41.4 43.83 C27.45 43.83, 13.51 43.83, 0 43.83 M0 43.83 C0 31.08, 0 18.32, 0 0 M0 43.83 C0 26.69, 0 9.55, 0 0" stroke="#000000" stroke-width="1" fill="none"></path></g><g transform="translate(25.136631228993792 45.9898495879861) rotate(0 5.5615234375 11.5)"><text x="5.5615234375" y="0" font-family="Helvetica, Segoe UI Emoji" font-size="20px" fill="#000000" text-anchor="middle" style="white-space: pre;" direction="ltr" dominant-baseline="text-before-edge">0</text></g><g stroke-linecap="round" transform="translate(51.3963093329794 35.57415641169791) rotate(0 20.698154666493906 21.915693176288187)"><path d="M0 0 C8.72 0, 17.44 0, 41.4 0 M0 0 C9.56 0, 19.11 0, 41.4 0 M41.4 0 C41.4 12.33, 41.4 24.65, 41.4 43.83 M41.4 0 C41.4 11.63, 41.4 23.26, 41.4 43.83 M41.4 43.83 C29.42 43.83, 17.44 43.83, 0 43.83 M41.4 43.83 C29.55 43.83, 17.71 43.83, 0 43.83 M0 43.83 C0 32.55, 0 21.27, 0 0 M0 43.83 C0 27.73, 0 11.62, 0 0" stroke="#000000" stroke-width="1" fill="none"></path></g><g transform="translate(66.53294056197319 45.9898495879861) rotate(0 5.5615234375 11.5)"><text x="5.5615234375" y="0" font-family="Helvetica, Segoe UI Emoji" font-size="20px" fill="#000000" text-anchor="middle" style="white-space: pre;" direction="ltr" dominant-baseline="text-before-edge">1</text></g><g stroke-linecap="round" transform="translate(92.84842251433383 35.47141456701502) rotate(0 20.698154666493906 21.915693176288187)"><path d="M0 0 C14.82 0, 29.64 0, 41.4 0 M0 0 C15.29 0, 30.58 0, 41.4 0 M41.4 0 C41.4 9.15, 41.4 18.3, 41.4 43.83 M41.4 0 C41.4 11.84, 41.4 23.67, 41.4 43.83 M41.4 43.83 C26.72 43.83, 12.04 43.83, 0 43.83 M41.4 43.83 C26.58 43.83, 11.77 43.83, 0 43.83 M0 43.83 C0 30.05, 0 16.27, 0 0 M0 43.83 C0 34.13, 0 24.43, 0 0" stroke="#000000" stroke-width="1" fill="none"></path></g><g transform="translate(107.98505374332763 45.887107743303204) rotate(0 5.5615234375 11.5)"><text x="5.5615234375" y="0" font-family="Helvetica, Segoe UI Emoji" font-size="20px" fill="#000000" text-anchor="middle" style="white-space: pre;" direction="ltr" dominant-baseline="text-before-edge">4</text></g><g stroke-linecap="round" transform="translate(134.24473184733233 35.57415641169791) rotate(0 20.698154666493906 21.915693176288187)"><path d="M0 0 C11.22 0, 22.44 0, 41.4 0 M0 0 C9.55 0, 19.1 0, 41.4 0 M41.4 0 C41.4 17.43, 41.4 34.85, 41.4 43.83 M41.4 0 C41.4 16.8, 41.4 33.6, 41.4 43.83 M41.4 43.83 C26.74 43.83, 12.08 43.83, 0 43.83 M41.4 43.83 C25.7 43.83, 10 43.83, 0 43.83 M0 43.83 C0 32.2, 0 20.58, 0 0 M0 43.83 C0 32.34, 0 20.84, 0 0" stroke="#000000" stroke-width="1" fill="none"></path></g><g transform="translate(149.38136307632612 45.9898495879861) rotate(0 5.5615234375 11.5)"><text x="5.5615234375" y="0" font-family="Helvetica, Segoe UI Emoji" font-size="20px" fill="#000000" text-anchor="middle" style="white-space: pre;" direction="ltr" dominant-baseline="text-before-edge">4</text></g><g stroke-linecap="round" transform="translate(176.14680238078995 35.44619620661979) rotate(0 20.698154666493906 21.915693176288187)"><path d="M0 0 C14.74 0, 29.47 0, 41.4 0 M0 0 C11.23 0, 22.47 0, 41.4 0 M41.4 0 C41.4 10.88, 41.4 21.76, 41.4 43.83 M41.4 0 C41.4 16.02, 41.4 32.05, 41.4 43.83 M41.4 43.83 C32.67 43.83, 23.95 43.83, 0 43.83 M41.4 43.83 C31.58 43.83, 21.77 43.83, 0 43.83 M0 43.83 C0 27.03, 0 10.23, 0 0 M0 43.83 C0 33.97, 0 24.11, 0 0" stroke="#000000" stroke-width="1" fill="none"></path></g><g transform="translate(191.28343360978374 45.861889382907975) rotate(0 5.5615234375 11.5)"><text x="5.5615234375" y="0" font-family="Helvetica, Segoe UI Emoji" font-size="20px" fill="#000000" text-anchor="middle" style="white-space: pre;" direction="ltr" dominant-baseline="text-before-edge">8</text></g><g stroke-linecap="round" transform="translate(217.44319668323533 35.57415641169791) rotate(0 20.698154666493906 21.915693176288187)"><path d="M0 0 C16.11 0, 32.22 0, 41.4 0 M0 0 C11.3 0, 22.6 0, 41.4 0 M41.4 0 C41.4 13.84, 41.4 27.68, 41.4 43.83 M41.4 0 C41.4 16.15, 41.4 32.3, 41.4 43.83 M41.4 43.83 C29.55 43.83, 17.71 43.83, 0 43.83 M41.4 43.83 C25.9 43.83, 10.4 43.83, 0 43.83 M0 43.83 C0 27.83, 0 11.83, 0 0 M0 43.83 C0 32.17, 0 20.51, 0 0" stroke="#000000" stroke-width="1" fill="none"></path></g><g transform="translate(232.57982791222912 45.9898495879861) rotate(0 5.5615234375 11.5)"><text x="5.5615234375" y="0" font-family="Helvetica, Segoe UI Emoji" font-size="20px" fill="#000000" text-anchor="middle" style="white-space: pre;" direction="ltr" dominant-baseline="text-before-edge">0</text></g><g stroke-linecap="round" transform="translate(258.83950601622564 35.57415641169791) rotate(0 20.698154666493906 21.915693176288187)"><path d="M0 0 C11.19 0, 22.38 0, 41.4 0 M0 0 C14.03 0, 28.07 0, 41.4 0 M41.4 0 C41.4 15.9, 41.4 31.8, 41.4 43.83 M41.4 0 C41.4 10.12, 41.4 20.24, 41.4 43.83 M41.4 43.83 C27.56 43.83, 13.72 43.83, 0 43.83 M41.4 43.83 C25.36 43.83, 9.32 43.83, 0 43.83 M0 43.83 C0 27.01, 0 10.19, 0 0 M0 43.83 C0 32.39, 0 20.96, 0 0" stroke="#000000" stroke-width="1" fill="none"></path></g><g transform="translate(273.97613724521943 45.9898495879861) rotate(0 5.5615234375 11.5)"><text x="5.5615234375" y="0" font-family="Helvetica, Segoe UI Emoji" font-size="20px" fill="#000000" text-anchor="middle" style="white-space: pre;" direction="ltr" dominant-baseline="text-before-edge">0</text></g><g stroke-linecap="round" transform="translate(300.2358153492087 35.57415641169791) rotate(0 20.698154666493906 21.915693176288187)"><path d="M0 0 C11.42 0, 22.83 0, 41.4 0 M0 0 C16.22 0, 32.44 0, 41.4 0 M41.4 0 C41.4 13.72, 41.4 27.44, 41.4 43.83 M41.4 0 C41.4 12.11, 41.4 24.21, 41.4 43.83 M41.4 43.83 C26.73 43.83, 12.07 43.83, 0 43.83 M41.4 43.83 C28.04 43.83, 14.69 43.83, 0 43.83 M0 43.83 C0 33.23, 0 22.62, 0 0 M0 43.83 C0 35.02, 0 26.22, 0 0" stroke="#000000" stroke-width="1" fill="none"></path></g><g transform="translate(315.37244657820247 45.9898495879861) rotate(0 5.5615234375 11.5)"><text x="5.5615234375" y="0" font-family="Helvetica, Segoe UI Emoji" font-size="20px" fill="#000000" text-anchor="middle" style="white-space: pre;" direction="ltr" dominant-baseline="text-before-edge">0</text></g><g transform="translate(23.814689593592448 10.110768403468683) rotate(0 5.102691650390625 10.554646445114486)"><text x="0" y="0" font-family="Helvetica, Segoe UI Emoji" font-size="18.35590686106971px" fill="#000000" text-anchor="start" style="white-space: pre;" direction="ltr" dominant-baseline="text-before-edge">0</text></g><g transform="translate(69.43602231615205 10) rotate(0 5.102691650390625 10.554646445114486)"><text x="0" y="0" font-family="Helvetica, Segoe UI Emoji" font-size="18.355906861069688px" fill="#000000" text-anchor="start" style="white-space: pre;" direction="ltr" dominant-baseline="text-before-edge">1</text></g><g transform="translate(106.90047297251931 10) rotate(0 5.102691650390625 10.554646445114486)"><text x="0" y="0" font-family="Helvetica, Segoe UI Emoji" font-size="18.355906861069705px" fill="#000000" text-anchor="start" style="white-space: pre;" direction="ltr" dominant-baseline="text-before-edge">2</text></g><g transform="translate(148.48667099717386 10) rotate(0 5.102691650390625 10.554646445114486)"><text x="0" y="0" font-family="Helvetica, Segoe UI Emoji" font-size="18.355906861069695px" fill="#000000" text-anchor="start" style="white-space: pre;" direction="ltr" dominant-baseline="text-before-edge">3</text></g><g transform="translate(190.66860388343048 10) rotate(0 5.102691650390625 10.554646445114486)"><text x="0" y="0" font-family="Helvetica, Segoe UI Emoji" font-size="18.355906861069702px" fill="#000000" text-anchor="start" style="white-space: pre;" direction="ltr" dominant-baseline="text-before-edge">4</text></g><g transform="translate(232.25480190807502 10) rotate(0 5.102691650390625 10.554646445114486)"><text x="0" y="0" font-family="Helvetica, Segoe UI Emoji" font-size="18.35590686106969px" fill="#000000" text-anchor="start" style="white-space: pre;" direction="ltr" dominant-baseline="text-before-edge">5</text></g><g transform="translate(273.4612225494002 10) rotate(0 5.102691650390625 10.554646445114486)"><text x="0" y="0" font-family="Helvetica, Segoe UI Emoji" font-size="18.355906861069702px" fill="#000000" text-anchor="start" style="white-space: pre;" direction="ltr" dominant-baseline="text-before-edge">6</text></g><g transform="translate(315.80697534071805 10) rotate(0 5.102691650390625 10.554646445114486)"><text x="0" y="0" font-family="Helvetica, Segoe UI Emoji" font-size="18.355906861069705px" fill="#000000" text-anchor="start" style="white-space: pre;" direction="ltr" dominant-baseline="text-before-edge">7</text></g><g transform="translate(137.45911250880158 83.3366187652282) rotate(0 17.20703125 9.200000000000728)"><text x="17.20703125" y="0" font-family="Helvetica, Segoe UI Emoji" font-size="16px" fill="#000000" text-anchor="middle" style="white-space: pre;" direction="ltr" dominant-baseline="text-before-edge">0011</text></g><g transform="translate(178.5560359963415 81.41605486512708) rotate(0 17.796875 9.200000000000728)"><text x="17.796875" y="0" font-family="Helvetica, Segoe UI Emoji" font-size="16px" fill="#000000" text-anchor="middle" style="white-space: pre;" direction="ltr" dominant-baseline="text-before-edge">0100</text></g><g transform="translate(345.49534367032606 78.78213224659339) rotate(0 17.796875 9.200000000000728)"><text x="17.796875" y="0" font-family="Helvetica, Segoe UI Emoji" font-size="16px" fill="#000000" text-anchor="middle" style="white-space: pre;" direction="ltr" dominant-baseline="text-before-edge">1000</text></g><g stroke-linecap="round"><g transform="translate(193.38931427612442 123.57547415485897) rotate(179.89816197093543 -20.925562997345537 -5.231730516345124)"><path d="M0 0 C-2.77 -2.35, -9.62 -14.7, -16.59 -14.09 C-23.57 -13.48, -37.64 0.69, -41.85 3.65 M0 0 C-2.77 -2.35, -9.62 -14.7, -16.59 -14.09 C-23.57 -13.48, -37.64 0.69, -41.85 3.65" stroke="#000000" stroke-width="1" fill="none"></path></g><g transform="translate(193.38931427612442 123.57547415485897) rotate(179.89816197093543 -20.925562997345537 -5.231730516345124)"><path d="M-41.85 3.65 L-35.5 -9.94 L-27.36 -0.22 L-41.85 3.65" stroke="none" stroke-width="0" fill="#000000" fill-rule="evenodd"></path><path d="M-41.85 3.65 C-39.61 -1.15, -37.37 -5.94, -35.5 -9.94 M-41.85 3.65 C-39.31 -1.78, -36.77 -7.21, -35.5 -9.94 M-35.5 -9.94 C-33.23 -7.23, -30.96 -4.52, -27.36 -0.22 M-35.5 -9.94 C-33.47 -7.52, -31.44 -5.09, -27.36 -0.22 M-27.36 -0.22 C-30.52 0.62, -33.68 1.47, -41.85 3.65 M-27.36 -0.22 C-31.15 0.79, -34.94 1.8, -41.85 3.65 M-41.85 3.65 C-41.85 3.65, -41.85 3.65, -41.85 3.65 M-41.85 3.65 C-41.85 3.65, -41.85 3.65, -41.85 3.65" stroke="#000000" stroke-width="1" fill="none"></path></g></g><mask></mask><g stroke-linecap="round"><g transform="translate(350.18942277483256 122.03641086034622) rotate(179.59180238134556 -75.52411287885502 -6.343514460879305)"><path d="M0 0 C-12.89 -2.8, -52.15 -17.48, -77.33 -16.79 C-102.5 -16.11, -138.76 0.64, -151.05 4.13 M0 0 C-12.89 -2.8, -52.15 -17.48, -77.33 -16.79 C-102.5 -16.11, -138.76 0.64, -151.05 4.13" stroke="#000000" stroke-width="1" fill="none"></path></g><g transform="translate(350.18942277483256 122.03641086034622) rotate(179.59180238134556 -75.52411287885502 -6.343514460879305)"><path d="M-151.05 4.13 L-140.38 -6.41 L-136.11 5.52 L-151.05 4.13" stroke="none" stroke-width="0" fill="#000000" fill-rule="evenodd"></path><path d="M-151.05 4.13 C-147.88 1, -144.71 -2.14, -140.38 -6.41 M-151.05 4.13 C-147.17 0.3, -143.29 -3.54, -140.38 -6.41 M-140.38 -6.41 C-138.7 -1.72, -137.03 2.97, -136.11 5.52 M-140.38 -6.41 C-139 -2.57, -137.63 1.28, -136.11 5.52 M-136.11 5.52 C-139.84 5.18, -143.56 4.83, -151.05 4.13 M-136.11 5.52 C-139.85 5.18, -143.6 4.83, -151.05 4.13 M-151.05 4.13 C-151.05 4.13, -151.05 4.13, -151.05 4.13 M-151.05 4.13 C-151.05 4.13, -151.05 4.13, -151.05 4.13" stroke="#000000" stroke-width="1" fill="none"></path></g></g><mask></mask></svg>