<?xml version="1.0" standalone="no"?>
<!DOCTYPE svg PUBLIC "-//W3C//DTD SVG 20010904//EN"
        "http://www.w3.org/TR/2001/REC-SVG-20010904/DTD/svg10.dtd">
<svg version="1.0" xmlns="http://www.w3.org/2000/svg"
     width="180.000000pt" height="180.000000pt" viewBox="0 0 180.000000 180.000000"
     preserveAspectRatio="xMidYMid meet">

    <g transform="translate(0.000000,180.000000) scale(0.100000,-0.100000)"
       fill="#000000" stroke="none">
        <path d="M203 1762 c-74 -26 -117 -64 -150 -129 l-28 -58 0 -665 c0 -533 3
-674 14 -712 16 -56 69 -122 120 -147 77 -40 131 -42 776 -39 672 3 656 2 739
59 40 27 82 88 99 144 9 30 12 205 12 685 0 593 -1 649 -18 696 -24 69 -75
126 -139 155 l-53 24 -660 2 c-613 2 -664 1 -712 -15z m397 -551 l0 -59 -165
-127 -165 -128 53 -41 c29 -23 104 -79 165 -126 l112 -85 0 -58 c0 -32 -4 -57
-9 -55 -4 2 -94 71 -200 153 l-191 150 3 64 2 65 194 153 c107 84 196 153 197
153 2 0 4 -26 4 -59z m570 56 c0 -1 -89 -169 -198 -372 l-198 -370 -72 -3
c-40 -2 -72 0 -72 3 0 4 93 173 208 376 l207 369 63 0 c34 0 62 -1 62 -3z
m258 -167 l183 -144 -3 -60 -3 -60 -180 -143 c-99 -79 -188 -148 -197 -153
-16 -10 -18 -5 -18 48 l0 59 160 123 c88 67 160 125 159 129 0 3 -71 60 -157
126 l-157 121 -3 64 c-3 61 -2 63 15 49 10 -9 100 -80 201 -159z"/>
    </g>
</svg>
