<?xml version="1.0" encoding="UTF-8"?>
<svg version="1.1" xmlns="http://www.w3.org/2000/svg" width="614" height="450">
<path d="M0 0 C202.62 0 405.24 0 614 0 C614 148.5 614 297 614 450 C411.38 450 208.76 450 0 450 C0 301.5 0 153 0 0 Z " fill="#FEFEFE" transform="translate(0,0)"/>
<path d="M0 0 C1.66611905 -0.042721 3.33382885 -0.04063832 5 0 C7.02636067 2.02636067 6.23049136 5.97977349 6.25 8.75 C6.2809375 9.82507813 6.2809375 9.82507813 6.3125 10.921875 C6.33699907 14.25374819 6.29869782 16.52308507 4.5065155 19.38456726 C2.74532289 22.44214006 2.60649131 24.29448369 2.56762695 27.80004883 C2.53793571 29.51125664 2.53793571 29.51125664 2.50764465 31.2570343 C2.50125473 32.47803329 2.49486481 33.69903229 2.48828125 34.95703125 C2.47033005 36.21513107 2.45237885 37.4732309 2.43388367 38.76945496 C2.38894238 42.10182254 2.35661711 45.43382365 2.33044434 48.76635742 C2.30057875 52.1718471 2.25406921 55.57710569 2.20898438 58.98242188 C2.12401662 65.65484107 2.05568131 72.32727562 2 79 C0.68 79 -0.64 79 -2 79 C-2 82.3 -2 85.6 -2 89 C-1.01 89 -0.02 89 1 89 C1.20496094 89.68707031 1.40992188 90.37414062 1.62109375 91.08203125 C1.89050781 91.98308594 2.15992188 92.88414062 2.4375 93.8125 C2.83775391 95.15248047 2.83775391 95.15248047 3.24609375 96.51953125 C3.80387873 98.35473055 4.39344575 100.18033726 5 102 C5.99 102 6.98 102 8 102 C8.33 103.98 8.66 105.96 9 108 C9.99 108 10.98 108 12 108 C12.33 109.98 12.66 111.96 13 114 C13.99 114 14.98 114 16 114 C16 114.99 16 115.98 16 117 C17.32 117 18.64 117 20 117 C24.57142857 124.28571429 24.57142857 124.28571429 24 129 C24.66 129 25.32 129 26 129 C27.02019573 129.9793879 28.02149805 130.97895449 29 132 C29.33 132 29.66 132 30 132 C30 133.65 30 135.3 30 137 C30.99 137 31.98 137 33 137 C33 139.31 33 141.62 33 144 C35.64 144.33 38.28 144.66 41 145 C41 145.99 41 146.98 41 148 C41.99 148 42.98 148 44 148 C44.33 152.62 44.66 157.24 45 162 C45.99 162 46.98 162 48 162 C48.33 163.98 48.66 165.96 49 168 C49.66 168 50.32 168 51 168 C51.66 169.98 52.32 171.96 53 174 C53.66 174 54.32 174 55 174 C55 175.32 55 176.64 55 178 C55.66 178 56.32 178 57 178 C57 178.66 57 179.32 57 180 C55.35 179.34 53.7 178.68 52 178 C52 177.01 52 176.02 52 175 C51.01 175.33 50.02 175.66 49 176 C49 181.28 49 186.56 49 192 C49.66 192 50.32 192 51 192 C51 201.24 51 210.48 51 220 C60.9 220 70.8 220 81 220 C81 218.68 81 217.36 81 216 C81.66 216 82.32 216 83 216 C83 217.32 83 218.64 83 220 C98.84 220 114.68 220 131 220 C131 220.66 131 221.32 131 222 C116.48 222 101.96 222 87 222 C87 223.32 87 224.64 87 226 C86.01 226 85.02 226 84 226 C84 225.01 84 224.02 84 223 C52.98 223 21.96 223 -10 223 C-10 236.2 -10 249.4 -10 263 C-10.99 263.99 -11.98 264.98 -13 266 C-13.50479657 268.6068023 -13.50479657 268.6068023 -13.51171875 271.54296875 C-13.54716797 272.61611328 -13.58261719 273.68925781 -13.61914062 274.79492188 C-13.64169922 275.91447266 -13.66425781 277.03402344 -13.6875 278.1875 C-13.72166016 279.31865234 -13.75582031 280.44980469 -13.79101562 281.61523438 C-13.87356314 284.4100574 -13.94269182 287.20456398 -14 290 C-14.66 290 -15.32 290 -16 290 C-16 300.89 -16 311.78 -16 323 C-16.66 323 -17.32 323 -18 323 C-18 332.57 -18 342.14 -18 352 C-18.66 352 -19.32 352 -20 352 C-20 357.28 -20 362.56 -20 368 C-21.32 368 -22.64 368 -24 368 C-24 362.72 -24 357.44 -24 352 C-23.01 352 -22.02 352 -21 352 C-21 342.1 -21 332.2 -21 322 C-20.34 322 -19.68 322 -19 322 C-19 311.44 -19 300.88 -19 290 C-18.34 290 -17.68 290 -17 290 C-17 280.1 -17 270.2 -17 260 C-16.34 260 -15.68 260 -15 260 C-15 250.1 -15 240.2 -15 230 C-14.34 230 -13.68 230 -13 230 C-13 227.03 -13 224.06 -13 221 C-30.16 221.33 -47.32 221.66 -65 222 C-65 222.66 -65 223.32 -65 224 C-66.98 224 -68.96 224 -71 224 C-71 223.34 -71 222.68 -71 222 C-71.66 222 -72.32 222 -73 222 C-73 221.34 -73 220.68 -73 220 C-127.78 220 -182.56 220 -239 220 C-239 219.34 -239 218.68 -239 218 C-244.94 218 -250.88 218 -257 218 C-257 218.66 -257 219.32 -257 220 C-272.84 220 -288.68 220 -305 220 C-305 219.34 -305 218.68 -305 218 C-324.14 218 -343.28 218 -363 218 C-363 217.34 -363 216.68 -363 216 C-343.86 216 -324.72 216 -305 216 C-305 208.08 -305 200.16 -305 192 C-304.34 192 -303.68 192 -303 192 C-303 188.7 -303 185.4 -303 182 C-302.34 182 -301.68 182 -301 182 C-301 180.02 -301 178.04 -301 176 C-300.01 176 -299.02 176 -298 176 C-298 178.31 -298 180.62 -298 183 C-298.66 183 -299.32 183 -300 183 C-299.98839844 183.63808594 -299.97679687 184.27617187 -299.96484375 184.93359375 C-299.95582031 185.75988281 -299.94679688 186.58617187 -299.9375 187.4375 C-299.92589844 188.26121094 -299.91429687 189.08492187 -299.90234375 189.93359375 C-300 192 -300 192 -301 193 C-301.33 200.26 -301.66 207.52 -302 215 C-280.88 215 -259.76 215 -238 215 C-238 213.35 -238 211.7 -238 210 C-234.5647952 207.70986347 -233.014669 207.82157027 -229 208 C-229 208.66 -229 209.32 -229 210 C-228.34 210 -227.68 210 -227 210 C-227 212.64 -227 215.28 -227 218 C-205.22 218 -183.44 218 -161 218 C-161 215.36 -161 212.72 -161 210 C-159 208 -159 208 -155.875 207.875 C-154.92625 207.91625 -153.9775 207.9575 -153 208 C-153 208.66 -153 209.32 -153 210 C-152.34 210 -151.68 210 -151 210 C-151 212.64 -151 215.28 -151 218 C-125.26 218 -99.52 218 -73 218 C-72.67 216.35 -72.34 214.7 -72 213 C-71 212 -71 212 -67.9375 211.9375 C-66.968125 211.958125 -65.99875 211.97875 -65 212 C-65 212.66 -65 213.32 -65 214 C-64.01 214 -63.02 214 -62 214 C-62 214.99 -62 215.98 -62 217 C-45.83 217 -29.66 217 -13 217 C-13 211.06 -13 205.12 -13 199 C-12.93938522 193.89256004 -12.86967676 188.78657742 -12.78125 183.6796875 C-12.75870055 182.31536061 -12.73628326 180.95103153 -12.71398926 179.58670044 C-12.6561086 176.06550869 -12.59648291 172.54434878 -12.53643799 169.02319336 C-12.47501812 165.40219919 -12.41532556 161.78117654 -12.35546875 158.16015625 C-12.23862806 151.10674276 -12.11993578 144.0533616 -12 137 C-10.68 137 -9.36 137 -8 137 C-8 125.12 -8 113.24 -8 101 C-8.99 101 -9.98 101 -11 101 C-11 100.01 -11 99.02 -11 98 C-11.66 98 -12.32 98 -13 98 C-13.09765625 91.84765625 -13.09765625 91.84765625 -13 90 C-12.67 89.67 -12.34 89.34 -12 89 C-11.92794489 87.31391034 -11.91613932 85.62499341 -11.9375 83.9375 C-11.95103516 82.55884766 -11.95103516 82.55884766 -11.96484375 81.15234375 C-11.97644531 80.44207031 -11.98804688 79.73179688 -12 79 C-12.62519531 78.88140625 -13.25039063 78.7628125 -13.89453125 78.640625 C-16 78 -16 78 -17.6875 75.75 C-19 73 -19 73 -19.4375 70.3125 C-19.623125 69.549375 -19.80875 68.78625 -20 68 C-20.65355469 67.71382813 -21.30710937 67.42765625 -21.98046875 67.1328125 C-24 66 -24 66 -24.6171875 63.94140625 C-24.74480469 62.76384766 -24.74480469 62.76384766 -24.875 61.5625 C-25.23541814 59.14667808 -25.23541814 59.14667808 -26 57 C-28.95071844 55.06530151 -28.95071844 55.06530151 -32 54 C-32.33 53.01 -32.66 52.02 -33 51 C-33.99 50.34 -34.98 49.68 -36 49 C-37.67641174 45.64717651 -38 43.83880578 -38 40 C-38.99 40 -39.98 40 -41 40 C-41.433125 38.88625 -41.433125 38.88625 -41.875 37.75 C-42.90202913 35.07763188 -42.90202913 35.07763188 -44.125 33 C-45.19376273 30.55711377 -45.1465693 28.63824739 -45 26 C-45.66 26 -46.32 26 -47 26 C-47 25.34 -47 24.68 -47 24 C-45.35 24.66 -43.7 25.32 -42 26 C-42 26.99 -42 27.98 -42 29 C-41.01 29 -40.02 29 -39 29 C-38.32404685 30.41225926 -37.65959941 31.83002905 -37 33.25 C-36.62875 34.03890625 -36.2575 34.8278125 -35.875 35.640625 C-35 38 -35 38 -35 42 C-34.195625 42.20625 -33.39125 42.4125 -32.5625 42.625 C-31.716875 43.07875 -30.87125 43.5325 -30 44 C-29.1875 47.125 -29.1875 47.125 -29 50 C-28.34 50 -27.68 50 -27 50 C-27 51.32 -27 52.64 -27 54 C-25.68 54.66 -24.36 55.32 -23 56 C-23 57.32 -23 58.64 -23 60 C-21.68 60.66 -20.36 61.32 -19 62 C-19 63.32 -19 64.64 -19 66 C-17.68 66.66 -16.36 67.32 -15 68 C-15 69.32 -15 70.64 -15 72 C-13.35 72.66 -11.7 73.32 -10 74 C-10 74.99 -10 75.98 -10 77 C-8.02 77 -6.04 77 -4 77 C-4.00444122 76.21739304 -4.00888245 75.43478607 -4.01345825 74.62846375 C-4.05351627 67.25661724 -4.08397484 59.88482344 -4.10362434 52.51289654 C-4.11406591 48.72282459 -4.12823182 44.9328425 -4.15087891 41.14282227 C-4.17259413 37.48590523 -4.18456582 33.82907469 -4.18975449 30.17209816 C-4.19345263 28.77622936 -4.20067411 27.38036534 -4.21146011 25.98453331 C-4.22595663 24.03099551 -4.22681676 22.07737087 -4.22705078 20.1237793 C-4.231492 19.0112529 -4.23593323 17.8987265 -4.24050903 16.75248718 C-4 14 -4 14 -2 11 C-1.55888435 9.11845117 -1.1890733 7.21937362 -0.875 5.3125 C-0.70742188 4.31863281 -0.53984375 3.32476562 -0.3671875 2.30078125 C-0.24601562 1.54152344 -0.12484375 0.78226563 0 0 Z " fill="#FCFDFC" transform="translate(431,43)"/>
<path d="M0 0 C0.99 0 1.98 0 3 0 C3.33 1.98 3.66 3.96 4 6 C4.66 6 5.32 6 6 6 C6.66 7.98 7.32 9.96 8 12 C8.66 12 9.32 12 10 12 C10 13.32 10 14.64 10 16 C10.66 16 11.32 16 12 16 C12 16.66 12 17.32 12 18 C10.35 17.34 8.7 16.68 7 16 C7 15.01 7 14.02 7 13 C5.515 13.495 5.515 13.495 4 14 C4 19.28 4 24.56 4 30 C4.66 30 5.32 30 6 30 C6 39.24 6 48.48 6 58 C15.9 58 25.8 58 36 58 C36 56.68 36 55.36 36 54 C36.66 54 37.32 54 38 54 C38 55.32 38 56.64 38 58 C53.84 58 69.68 58 86 58 C86 58.66 86 59.32 86 60 C71.48 60 56.96 60 42 60 C42 61.32 42 62.64 42 64 C41.01 64 40.02 64 39 64 C39 63.01 39 62.02 39 61 C7.98 61 -23.04 61 -55 61 C-55 74.2 -55 87.4 -55 101 C-55.99 101.99 -56.98 102.98 -58 104 C-58.50479657 106.6068023 -58.50479657 106.6068023 -58.51171875 109.54296875 C-58.54716797 110.61611328 -58.58261719 111.68925781 -58.61914062 112.79492188 C-58.64169922 113.91447266 -58.66425781 115.03402344 -58.6875 116.1875 C-58.72166016 117.31865234 -58.75582031 118.44980469 -58.79101562 119.61523438 C-58.87356314 122.4100574 -58.94269182 125.20456398 -59 128 C-59.66 128 -60.32 128 -61 128 C-61 138.89 -61 149.78 -61 161 C-61.66 161 -62.32 161 -63 161 C-63 170.57 -63 180.14 -63 190 C-63.66 190 -64.32 190 -65 190 C-65 195.28 -65 200.56 -65 206 C-66.32 206 -67.64 206 -69 206 C-69 200.72 -69 195.44 -69 190 C-68.01 190 -67.02 190 -66 190 C-66 180.1 -66 170.2 -66 160 C-65.34 160 -64.68 160 -64 160 C-64 149.44 -64 138.88 -64 128 C-63.34 128 -62.68 128 -62 128 C-62 118.1 -62 108.2 -62 98 C-61.34 98 -60.68 98 -60 98 C-60 88.1 -60 78.2 -60 68 C-59.34 68 -58.68 68 -58 68 C-58 65.03 -58 62.06 -58 59 C-75.16 59.33 -92.32 59.66 -110 60 C-110 60.66 -110 61.32 -110 62 C-111.98 62 -113.96 62 -116 62 C-116 61.34 -116 60.68 -116 60 C-116.66 60 -117.32 60 -118 60 C-118 59.34 -118 58.68 -118 58 C-172.78 58 -227.56 58 -284 58 C-284 57.34 -284 56.68 -284 56 C-289.94 56 -295.88 56 -302 56 C-302 56.66 -302 57.32 -302 58 C-317.84 58 -333.68 58 -350 58 C-350 57.34 -350 56.68 -350 56 C-369.14 56 -388.28 56 -408 56 C-408 55.34 -408 54.68 -408 54 C-388.86 54 -369.72 54 -350 54 C-350 46.08 -350 38.16 -350 30 C-349.34 30 -348.68 30 -348 30 C-348 26.7 -348 23.4 -348 20 C-347.34 20 -346.68 20 -346 20 C-346 18.02 -346 16.04 -346 14 C-345.01 14 -344.02 14 -343 14 C-343 16.31 -343 18.62 -343 21 C-343.66 21 -344.32 21 -345 21 C-344.98839844 21.63808594 -344.97679687 22.27617187 -344.96484375 22.93359375 C-344.95582031 23.75988281 -344.94679688 24.58617187 -344.9375 25.4375 C-344.92589844 26.26121094 -344.91429687 27.08492187 -344.90234375 27.93359375 C-345 30 -345 30 -346 31 C-346.33 38.26 -346.66 45.52 -347 53 C-325.88 53 -304.76 53 -283 53 C-283 51.35 -283 49.7 -283 48 C-279.5647952 45.70986347 -278.014669 45.82157027 -274 46 C-274 46.66 -274 47.32 -274 48 C-273.34 48 -272.68 48 -272 48 C-272 50.64 -272 53.28 -272 56 C-250.22 56 -228.44 56 -206 56 C-206 53.36 -206 50.72 -206 48 C-204 46 -204 46 -200.875 45.875 C-199.92625 45.91625 -198.9775 45.9575 -198 46 C-198 46.66 -198 47.32 -198 48 C-197.34 48 -196.68 48 -196 48 C-196 50.64 -196 53.28 -196 56 C-170.26 56 -144.52 56 -118 56 C-117.67 54.35 -117.34 52.7 -117 51 C-116 50 -116 50 -112.9375 49.9375 C-111.968125 49.958125 -110.99875 49.97875 -110 50 C-110 50.66 -110 51.32 -110 52 C-109.34 52 -108.68 52 -108 52 C-108 53.32 -108 54.64 -108 56 C-82.755 55.505 -82.755 55.505 -57 55 C-56.67 52.69 -56.34 50.38 -56 48 C-54.02 48 -52.04 48 -50 48 C-50 48.66 -50 49.32 -50 50 C-49.34 50 -48.68 50 -48 50 C-48 51.98 -48 53.96 -48 56 C-44.7 56 -41.4 56 -38 56 C-38 56.66 -38 57.32 -38 58 C-36.02 58 -34.04 58 -32 58 C-32 57.01 -32 56.02 -32 55 C-20.45 55 -8.9 55 3 55 C2.67 43.45 2.34 31.9 2 20 C1.34 20 0.68 20 0 20 C0 17.69 0 15.38 0 13 C0.99 13 1.98 13 3 13 C3 11.02 3 9.04 3 7 C2.34 7 1.68 7 1 7 C0.67 4.69 0.34 2.38 0 0 Z " fill="#BD5F6D" transform="translate(476,205)"/>
<path d="M0 0 C1.66611905 -0.042721 3.33382885 -0.04063832 5 0 C7.02636067 2.02636067 6.23049136 5.97977349 6.25 8.75 C6.270625 9.46671875 6.29125 10.1834375 6.3125 10.921875 C6.33699907 14.25374819 6.29869782 16.52308507 4.5065155 19.38456726 C2.74532289 22.44214006 2.60649131 24.29448369 2.56762695 27.80004883 C2.54783279 28.94085403 2.52803864 30.08165924 2.50764465 31.2570343 C2.50125473 32.47803329 2.49486481 33.69903229 2.48828125 34.95703125 C2.46135445 36.84418098 2.46135445 36.84418098 2.43388367 38.76945496 C2.38894238 42.10182254 2.35661711 45.43382365 2.33044434 48.76635742 C2.30057875 52.1718471 2.25406921 55.57710569 2.20898438 58.98242188 C2.12401662 65.65484107 2.05568131 72.32727562 2 79 C0.68 79 -0.64 79 -2 79 C-2 82.3 -2 85.6 -2 89 C-1.01 89 -0.02 89 1 89 C1.20496094 89.68707031 1.40992188 90.37414062 1.62109375 91.08203125 C1.89050781 91.98308594 2.15992188 92.88414062 2.4375 93.8125 C2.70433594 94.70582031 2.97117187 95.59914063 3.24609375 96.51953125 C3.80387873 98.35473055 4.39344575 100.18033726 5 102 C5.99 102 6.98 102 8 102 C8.33 103.98 8.66 105.96 9 108 C8.34 108 7.68 108 7 108 C7 107.34 7 106.68 7 106 C6.01 106 5.02 106 4 106 C4 105.01 4 104.02 4 103 C2.68 103 1.36 103 0 103 C0 101.02 0 99.04 0 97 C-0.66 97 -1.32 97 -2 97 C-2.95314885 105.8847507 -3.30075966 114.75948373 -3.5625 123.6875 C-3.60582087 125.08269161 -3.64943878 126.47787402 -3.69335938 127.87304688 C-3.79848102 131.2486196 -3.90062877 134.62425393 -4 138 C-4.99 138 -5.98 138 -7 138 C-7 147.9 -7 157.8 -7 168 C-7.66 168 -8.32 168 -9 168 C-9 178.56 -9 189.12 -9 200 C-9.66 200 -10.32 200 -11 200 C-11 202.97 -11 205.94 -11 209 C-9.02 209 -7.04 209 -5 209 C-5 209.33 -5 209.66 -5 210 C-6.98 210 -8.96 210 -11 210 C-10.979375 211.134375 -10.95875 212.26875 -10.9375 213.4375 C-11 217 -11 217 -12 218 C-13.59610982 218.09333705 -15.19633428 218.11745372 -16.79516602 218.11352539 C-17.81614883 218.11344986 -18.83713165 218.11337433 -19.88905334 218.11329651 C-20.9994548 218.10813522 -22.10985626 218.10297394 -23.25390625 218.09765625 C-24.38448959 218.0962413 -25.51507294 218.09482635 -26.67991638 218.09336853 C-30.30747065 218.08775019 -33.93496424 218.07519458 -37.5625 218.0625 C-40.01497307 218.05748736 -42.4674471 218.05292405 -44.91992188 218.04882812 C-50.94663545 218.0377748 -56.97331339 218.02101884 -63 218 C-62.505 216.02 -62.505 216.02 -62 214 C-62 214.99 -62 215.98 -62 217 C-45.83 217 -29.66 217 -13 217 C-13 211.06 -13 205.12 -13 199 C-12.93938522 193.89256004 -12.86967676 188.78657742 -12.78125 183.6796875 C-12.75870055 182.31536061 -12.73628326 180.95103153 -12.71398926 179.58670044 C-12.6561086 176.06550869 -12.59648291 172.54434878 -12.53643799 169.02319336 C-12.47501812 165.40219919 -12.41532556 161.78117654 -12.35546875 158.16015625 C-12.23862806 151.10674276 -12.11993578 144.0533616 -12 137 C-10.68 137 -9.36 137 -8 137 C-8 125.12 -8 113.24 -8 101 C-8.99 101 -9.98 101 -11 101 C-11 100.01 -11 99.02 -11 98 C-11.66 98 -12.32 98 -13 98 C-13.09765625 91.84765625 -13.09765625 91.84765625 -13 90 C-12.67 89.67 -12.34 89.34 -12 89 C-11.92794489 87.31391034 -11.91613932 85.62499341 -11.9375 83.9375 C-11.94652344 83.01839844 -11.95554687 82.09929687 -11.96484375 81.15234375 C-11.97644531 80.44207031 -11.98804688 79.73179688 -12 79 C-12.62519531 78.88140625 -13.25039063 78.7628125 -13.89453125 78.640625 C-16 78 -16 78 -17.6875 75.75 C-19 73 -19 73 -19.4375 70.3125 C-19.623125 69.549375 -19.80875 68.78625 -20 68 C-20.65355469 67.71382813 -21.30710937 67.42765625 -21.98046875 67.1328125 C-24 66 -24 66 -24.6171875 63.94140625 C-24.70226562 63.15636719 -24.78734375 62.37132812 -24.875 61.5625 C-25.23541814 59.14667808 -25.23541814 59.14667808 -26 57 C-28.95071844 55.06530151 -28.95071844 55.06530151 -32 54 C-32.33 53.01 -32.66 52.02 -33 51 C-33.99 50.34 -34.98 49.68 -36 49 C-37.67641174 45.64717651 -38 43.83880578 -38 40 C-38.99 40 -39.98 40 -41 40 C-41.28875 39.2575 -41.5775 38.515 -41.875 37.75 C-42.90202913 35.07763188 -42.90202913 35.07763188 -44.125 33 C-45.19376273 30.55711377 -45.1465693 28.63824739 -45 26 C-45.66 26 -46.32 26 -47 26 C-47 25.34 -47 24.68 -47 24 C-45.35 24.66 -43.7 25.32 -42 26 C-42 26.99 -42 27.98 -42 29 C-41.01 29 -40.02 29 -39 29 C-38.32404685 30.41225926 -37.65959941 31.83002905 -37 33.25 C-36.62875 34.03890625 -36.2575 34.8278125 -35.875 35.640625 C-35 38 -35 38 -35 42 C-34.195625 42.20625 -33.39125 42.4125 -32.5625 42.625 C-31.2940625 43.305625 -31.2940625 43.305625 -30 44 C-29.1875 47.125 -29.1875 47.125 -29 50 C-28.34 50 -27.68 50 -27 50 C-27 51.32 -27 52.64 -27 54 C-25.68 54.66 -24.36 55.32 -23 56 C-23 57.32 -23 58.64 -23 60 C-21.68 60.66 -20.36 61.32 -19 62 C-19 63.32 -19 64.64 -19 66 C-17.68 66.66 -16.36 67.32 -15 68 C-15 69.32 -15 70.64 -15 72 C-13.35 72.66 -11.7 73.32 -10 74 C-10 74.99 -10 75.98 -10 77 C-8.02 77 -6.04 77 -4 77 C-4.00444122 76.21739304 -4.00888245 75.43478607 -4.01345825 74.62846375 C-4.05351627 67.25661724 -4.08397484 59.88482344 -4.10362434 52.51289654 C-4.11406591 48.72282459 -4.12823182 44.9328425 -4.15087891 41.14282227 C-4.17259413 37.48590523 -4.18456582 33.82907469 -4.18975449 30.17209816 C-4.19345263 28.77622936 -4.20067411 27.38036534 -4.21146011 25.98453331 C-4.22595663 24.03099551 -4.22681676 22.07737087 -4.22705078 20.1237793 C-4.231492 19.0112529 -4.23593323 17.8987265 -4.24050903 16.75248718 C-4 14 -4 14 -2 11 C-1.55888435 9.11845117 -1.1890733 7.21937362 -0.875 5.3125 C-0.70742188 4.31863281 -0.53984375 3.32476562 -0.3671875 2.30078125 C-0.18542969 1.16189453 -0.18542969 1.16189453 0 0 Z " fill="#FCF6CE" transform="translate(431,43)"/>
<path d="M0 0 C0.99 0 1.98 0 3 0 C3.495 2.97 3.495 2.97 4 6 C4.66 6 5.32 6 6 6 C6.99 8.97 6.99 8.97 8 12 C8.66 12 9.32 12 10 12 C10 13.32 10 14.64 10 16 C10.66 16 11.32 16 12 16 C12 16.66 12 17.32 12 18 C10.35 17.34 8.7 16.68 7 16 C7 15.01 7 14.02 7 13 C6.01 13.33 5.02 13.66 4 14 C4 19.28 4 24.56 4 30 C4.66 30 5.32 30 6 30 C6 39.24 6 48.48 6 58 C15.9 58 25.8 58 36 58 C36 56.68 36 55.36 36 54 C36.66 54 37.32 54 38 54 C38 55.32 38 56.64 38 58 C53.84 58 69.68 58 86 58 C86 58.66 86 59.32 86 60 C71.48 60 56.96 60 42 60 C42 61.32 42 62.64 42 64 C41.01 64 40.02 64 39 64 C39 63.01 39 62.02 39 61 C7.98 61 -23.04 61 -55 61 C-55 74.2 -55 87.4 -55 101 C-55.99 101.99 -56.98 102.98 -58 104 C-58.50479657 106.6068023 -58.50479657 106.6068023 -58.51171875 109.54296875 C-58.54716797 110.61611328 -58.58261719 111.68925781 -58.61914062 112.79492188 C-58.64169922 113.91447266 -58.66425781 115.03402344 -58.6875 116.1875 C-58.72166016 117.31865234 -58.75582031 118.44980469 -58.79101562 119.61523438 C-58.87356314 122.4100574 -58.94269182 125.20456398 -59 128 C-59.66 128 -60.32 128 -61 128 C-61 138.89 -61 149.78 -61 161 C-61.66 161 -62.32 161 -63 161 C-63 170.57 -63 180.14 -63 190 C-63.66 190 -64.32 190 -65 190 C-65 195.28 -65 200.56 -65 206 C-66.32 206 -67.64 206 -69 206 C-69 200.72 -69 195.44 -69 190 C-68.01 190 -67.02 190 -66 190 C-66 180.1 -66 170.2 -66 160 C-65.34 160 -64.68 160 -64 160 C-64 149.44 -64 138.88 -64 128 C-63.34 128 -62.68 128 -62 128 C-62 118.1 -62 108.2 -62 98 C-61.34 98 -60.68 98 -60 98 C-60 88.1 -60 78.2 -60 68 C-59.34 68 -58.68 68 -58 68 C-58 65.03 -58 62.06 -58 59 C-74.5 59.33 -91 59.66 -108 60 C-108 59.34 -108 58.68 -108 58 C-91.17 58 -74.34 58 -57 58 C-57 58.66 -57 59.32 -57 60 C-54.69 60 -52.38 60 -50 60 C-50 59.34 -50 58.68 -50 58 C-44.06 58 -38.12 58 -32 58 C-32 57.01 -32 56.02 -32 55 C-20.45 55 -8.9 55 3 55 C2.505 37.675 2.505 37.675 2 20 C1.34 20 0.68 20 0 20 C0 17.69 0 15.38 0 13 C0.99 13 1.98 13 3 13 C3 11.02 3 9.04 3 7 C2.34 7 1.68 7 1 7 C0.505 3.535 0.505 3.535 0 0 Z " fill="#EEE5B6" transform="translate(476,205)"/>
<path d="M0 0 C0.99 0 1.98 0 3 0 C3 0.99 3 1.98 3 3 C3.63808594 3.17015625 4.27617187 3.3403125 4.93359375 3.515625 C5.75988281 3.75796875 6.58617187 4.0003125 7.4375 4.25 C8.26121094 4.48203125 9.08492188 4.7140625 9.93359375 4.953125 C12 6 12 6 12.78515625 8.109375 C12.85605469 8.73328125 12.92695313 9.3571875 13 10 C14.32 10 15.64 10 17 10 C18.17571451 13.67410785 18.07366746 17.16929183 18 21 C18.66 21 19.32 21 20 21 C20 21.66 20 22.32 20 23 C20.66 23 21.32 23 22 23 C22 24.32 22 25.64 22 27 C22.66 27 23.32 27 24 27 C24 27.66 24 28.32 24 29 C24.99 29 25.98 29 27 29 C27.33 30.98 27.66 32.96 28 35 C28.99 35 29.98 35 31 35 C32 38 32 38 32 45 C22.1 45 12.2 45 2 45 C2 35.76 2 26.52 2 17 C1.34 17 0.68 17 0 17 C-0.19386492 14.35448944 -0.38038267 11.70882217 -0.5625 9.0625 C-0.61857422 8.30775391 -0.67464844 7.55300781 -0.73242188 6.77539062 C-0.86176157 4.85254042 -0.93516912 2.92610452 -1 1 C-0.67 0.67 -0.34 0.34 0 0 Z " fill="#F9FAF7" transform="translate(480,218)"/>
<path d="M0 0 C1.32 0.66 2.64 1.32 4 2 C4 2.99 4 3.98 4 5 C4.66 5 5.32 5 6 5 C6 3.35 6 1.7 6 0 C6.66 0 7.32 0 8 0 C8 3.96 8 7.92 8 12 C9.32 12.66 10.64 13.32 12 14 C12 15.32 12 16.64 12 18 C12.66 18 13.32 18 14 18 C14.99 20.97 14.99 20.97 16 24 C16.99 24 17.98 24 19 24 C19.495 26.97 19.495 26.97 20 30 C19.34 30 18.68 30 18 30 C18 29.34 18 28.68 18 28 C17.01 28 16.02 28 15 28 C15 27.01 15 26.02 15 25 C13.68 25 12.36 25 11 25 C11 23.02 11 21.04 11 19 C10.34 19 9.68 19 9 19 C8.04685115 27.8847507 7.69924034 36.75948373 7.4375 45.6875 C7.39417913 47.08269161 7.35056122 48.47787402 7.30664062 49.87304688 C7.20151898 53.2486196 7.09937123 56.62425393 7 60 C6.01 60 5.02 60 4 60 C4 69.9 4 79.8 4 90 C3.34 90 2.68 90 2 90 C2 100.56 2 111.12 2 122 C1.34 122 0.68 122 0 122 C0 124.97 0 127.94 0 131 C1.98 131 3.96 131 6 131 C6 131.33 6 131.66 6 132 C4.02 132 2.04 132 0 132 C0.020625 133.134375 0.04125 134.26875 0.0625 135.4375 C0 139 0 139 -1 140 C-2.59610982 140.09333705 -4.19633428 140.11745372 -5.79516602 140.11352539 C-6.81614883 140.11344986 -7.83713165 140.11337433 -8.88905334 140.11329651 C-9.9994548 140.10813522 -11.10985626 140.10297394 -12.25390625 140.09765625 C-13.38448959 140.0962413 -14.51507294 140.09482635 -15.67991638 140.09336853 C-19.30747065 140.08775019 -22.93496424 140.07519458 -26.5625 140.0625 C-29.01497307 140.05748736 -31.4674471 140.05292405 -33.91992188 140.04882812 C-39.94663545 140.0377748 -45.97331339 140.02101884 -52 140 C-51.505 138.02 -51.505 138.02 -51 136 C-51 136.99 -51 137.98 -51 139 C-34.83 139 -18.66 139 -2 139 C-2 133.06 -2 127.12 -2 121 C-1.93938522 115.89256004 -1.86967676 110.78657742 -1.78125 105.6796875 C-1.75870055 104.31536061 -1.73628326 102.95103153 -1.71398926 101.58670044 C-1.6561086 98.06550869 -1.59648291 94.54434878 -1.53643799 91.02319336 C-1.47501812 87.40219919 -1.41532556 83.78117654 -1.35546875 80.16015625 C-1.23862806 73.10674276 -1.11993578 66.0533616 -1 59 C0.32 59 1.64 59 3 59 C3 47.12 3 35.24 3 23 C2.01 23 1.02 23 0 23 C0 22.01 0 21.02 0 20 C-0.66 20 -1.32 20 -2 20 C-2.25 12.375 -2.25 12.375 0 9 C1.32 9 2.64 9 4 9 C4 8.01 4 7.02 4 6 C3.34 6 2.68 6 2 6 C2 4.68 2 3.36 2 2 C1.34 2 0.68 2 0 2 C0 1.34 0 0.68 0 0 Z " fill="#EEE5B5" transform="translate(420,121)"/>
<path d="M0 0 C0.99 0 1.98 0 3 0 C3.495 2.97 3.495 2.97 4 6 C4.66 6 5.32 6 6 6 C6.66 7.98 7.32 9.96 8 12 C8.66 12 9.32 12 10 12 C10 13.32 10 14.64 10 16 C10.66 16 11.32 16 12 16 C12 16.66 12 17.32 12 18 C9.525 17.01 9.525 17.01 7 16 C7 15.01 7 14.02 7 13 C6.01 13.33 5.02 13.66 4 14 C4 19.28 4 24.56 4 30 C4.66 30 5.32 30 6 30 C6 39.24 6 48.48 6 58 C15.9 58 25.8 58 36 58 C36 56.68 36 55.36 36 54 C36.66 54 37.32 54 38 54 C38 55.32 38 56.64 38 58 C53.84 58 69.68 58 86 58 C86 58.66 86 59.32 86 60 C71.48 60 56.96 60 42 60 C42 61.32 42 62.64 42 64 C41.34 64 40.68 64 40 64 C40 62.68 40 61.36 40 60 C14.26 60 -11.48 60 -38 60 C-38 59.34 -38 58.68 -38 58 C-36.02 58 -34.04 58 -32 58 C-32 57.01 -32 56.02 -32 55 C-20.45 55 -8.9 55 3 55 C2.505 37.675 2.505 37.675 2 20 C1.34 20 0.68 20 0 20 C0 17.69 0 15.38 0 13 C0.99 13 1.98 13 3 13 C3 11.02 3 9.04 3 7 C2.34 7 1.68 7 1 7 C0.505 3.535 0.505 3.535 0 0 Z " fill="#BA606D" transform="translate(476,205)"/>
<path d="M0 0 C1.98 0 3.96 0 6 0 C6 0.66 6 1.32 6 2 C6.66 2 7.32 2 8 2 C8 3.98 8 5.96 8 8 C11.3 8 14.6 8 18 8 C18 8.66 18 9.32 18 10 C14.04 10 10.08 10 6 10 C6 10.66 6 11.32 6 12 C3.69 12 1.38 12 -1 12 C-1 11.34 -1 10.68 -1 10 C-17.83 10 -34.66 10 -52 10 C-52 10.66 -52 11.32 -52 12 C-52.66 12 -53.32 12 -54 12 C-54 12.66 -54 13.32 -54 14 C-55.98 14 -57.96 14 -60 14 C-60 13.34 -60 12.68 -60 12 C-60.66 12 -61.32 12 -62 12 C-62 11.34 -62 10.68 -62 10 C-110.18 10 -158.36 10 -208 10 C-208 9.67 -208 9.34 -208 9 C-198.29187144 8.82079872 -188.58353318 8.65554495 -178.875 8.5 C-178.13411636 8.48812275 -177.39323273 8.4762455 -176.62989807 8.46400833 C-150.0026912 8.04140077 -123.38035718 7.91124379 -96.75 7.9375 C-95.8754995 7.93835602 -95.00099899 7.93921204 -94.09999847 7.94009399 C-83.39997706 7.9513576 -72.69998856 7.9712408 -62 8 C-61.855625 7.195625 -61.71125 6.39125 -61.5625 5.5625 C-61 3 -61 3 -60 2 C-58.00041636 1.95919217 -55.99954746 1.95745644 -54 2 C-54 2.66 -54 3.32 -54 4 C-53.34 4 -52.68 4 -52 4 C-52 5.32 -52 6.64 -52 8 C-26.755 7.505 -26.755 7.505 -1 7 C-0.67 4.69 -0.34 2.38 0 0 Z " fill="#C05E6A" transform="translate(420,253)"/>
<path d="M0 0 C54.78 0 109.56 0 166 0 C166 0.66 166 1.32 166 2 C166.66 2 167.32 2 168 2 C167.67 2.66 167.34 3.32 167 4 C145.66883369 3.89284521 124.3377035 3.78009905 103.00660229 3.66066074 C93.10263951 3.60533688 83.19867313 3.55185624 73.29467773 3.50268555 C64.66431944 3.45983348 56.03398759 3.41355288 47.40367013 3.36312145 C42.83222904 3.33652878 38.26079317 3.31167587 33.68932152 3.29092598 C29.38923588 3.2713538 25.08920051 3.24720823 20.78915977 3.21950912 C19.20851046 3.21014178 17.62785011 3.20246536 16.04718399 3.19658089 C13.89367991 3.18831434 11.74029767 3.17403614 9.58683777 3.15821838 C8.38021075 3.15176583 7.17358374 3.14531328 5.93039227 3.1386652 C3 3 3 3 0 2 C0 1.34 0 0.68 0 0 Z " fill="#FED7E2" transform="translate(192,263)"/>
<path d="M0 0 C1.65 0.33 3.3 0.66 5 1 C5.08132187 3.56314499 5.14064175 6.12368418 5.1875 8.6875 C5.22520508 9.7693457 5.22520508 9.7693457 5.26367188 10.87304688 C5.30958218 14.2244992 5.31009271 16.50370508 3.50871277 19.38676453 C1.74398267 22.44344661 1.60650112 24.29359861 1.56762695 27.80004883 C1.54783279 28.94085403 1.52803864 30.08165924 1.50764465 31.2570343 C1.49805977 33.08853279 1.49805977 33.08853279 1.48828125 34.95703125 C1.47033005 36.21513107 1.45237885 37.4732309 1.43388367 38.76945496 C1.38894238 42.10182254 1.35661711 45.43382365 1.33044434 48.76635742 C1.30057875 52.1718471 1.25406921 55.57710569 1.20898438 58.98242188 C1.12401662 65.65484107 1.05568131 72.32727562 1 79 C-0.32 79 -1.64 79 -3 79 C-3 82.3 -3 85.6 -3 89 C-2.01 89 -1.02 89 0 89 C0.99 92.465 0.99 92.465 2 96 C1.34 96 0.68 96 0 96 C-0.28875 95.195625 -0.5775 94.39125 -0.875 93.5625 C-1.73262568 90.8673532 -1.73262568 90.8673532 -4 90 C-4 75.48 -4 60.96 -4 46 C-3.34 46 -2.68 46 -2 46 C-2 36.1 -2 26.2 -2 16 C-1.34 16 -0.68 16 0 16 C0 10.72 0 5.44 0 0 Z " fill="#EEE6B8" transform="translate(432,43)"/>
<path d="M0 0 C0.99 0 1.98 0 3 0 C3.33 1.98 3.66 3.96 4 6 C4.99 6 5.98 6 7 6 C7 6.99 7 7.98 7 9 C8.32 9 9.64 9 11 9 C15.57142857 16.28571429 15.57142857 16.28571429 15 21 C15.66 21 16.32 21 17 21 C18.02019573 21.9793879 19.02149805 22.97895449 20 24 C20.33 24 20.66 24 21 24 C21 25.65 21 27.3 21 29 C21.99 29 22.98 29 24 29 C24 31.31 24 33.62 24 36 C26.64 36.33 29.28 36.66 32 37 C32 37.99 32 38.98 32 40 C32.66 40 33.32 40 34 40 C34.125 47.75 34.125 47.75 33 50 C30.69 50 28.38 50 26 50 C26 49.34 26 48.68 26 48 C25.01 48 24.02 48 23 48 C22.67 43.38 22.34 38.76 22 34 C21.34 34 20.68 34 20 34 C20 32.68 20 31.36 20 30 C18.35 29.34 16.7 28.68 15 28 C15 26.68 15 25.36 15 24 C14.34 24 13.68 24 13 24 C13 23.34 13 22.68 13 22 C12.34 22 11.68 22 11 22 C11 20.68 11 19.36 11 18 C9.35 17.67 7.7 17.34 6 17 C5.67 14.69 5.34 12.38 5 10 C4.34 10 3.68 10 3 10 C3 9.01 3 8.02 3 7 C2.01 7 1.02 7 0 7 C0 4.69 0 2.38 0 0 Z " fill="#A1D7AE" transform="translate(440,151)"/>
<path d="M0 0 C0.66 0 1.32 0 2 0 C2 8.25 2 16.5 2 25 C17.18 25 32.36 25 48 25 C48 25.99 48 26.98 48 28 C32.16 28 16.32 28 0 28 C0 27.34 0 26.68 0 26 C-19.14 26 -38.28 26 -58 26 C-58 25.34 -58 24.68 -58 24 C-38.86 24 -19.72 24 0 24 C0 16.08 0 8.16 0 0 Z " fill="#793D46" transform="translate(126,235)"/>
<path d="M0 0 C0.99 0 1.98 0 3 0 C3 10.89 3 21.78 3 33 C2.34 33 1.68 33 1 33 C1 42.57 1 52.14 1 62 C0.34 62 -0.32 62 -1 62 C-1 67.28 -1 72.56 -1 78 C-2.32 78 -3.64 78 -5 78 C-5 72.72 -5 67.44 -5 62 C-4.01 62 -3.02 62 -2 62 C-2 52.1 -2 42.2 -2 32 C-1.34 32 -0.68 32 0 32 C0 21.44 0 10.88 0 0 Z " fill="#EBE0AA" transform="translate(412,333)"/>
<path d="M0 0 C1.98 0.99 1.98 0.99 4 2 C4 3.32 4 4.64 4 6 C4.639375 6.268125 5.27875 6.53625 5.9375 6.8125 C8 8 8 8 9 11 C9.99 11.33 10.98 11.66 12 12 C12 13.98 12 15.96 12 18 C13.32 18.66 14.64 19.32 16 20 C16 21.32 16 22.64 16 24 C17.65 24.66 19.3 25.32 21 26 C21 26.99 21 27.98 21 29 C21.598125 29.020625 22.19625 29.04125 22.8125 29.0625 C25 30 25 30 26.75 33.25 C27.83892401 36.51677203 28.30690389 38.6240572 28 42 C28.66 42 29.32 42 30 42 C30 42.66 30 43.32 30 44 C30.66 44 31.32 44 32 44 C32 45.32 32 46.64 32 48 C31.01 48 30.02 48 29 48 C29 46.68 29 45.36 29 44 C27.35 43.67 25.7 43.34 24 43 C24 41.68 24 40.36 24 39 C23.34 39 22.68 39 22 39 C19.16065339 36.75218393 18.30394066 34.30331635 17 31 C16.34 30.67 15.68 30.34 15 30 C15 29.01 15 28.02 15 27 C14.01 26.67 13.02 26.34 12 26 C11.67 23.69 11.34 21.38 11 19 C10.01 19 9.02 19 8 19 C7.67 17.35 7.34 15.7 7 14 C6.01 13.67 5.02 13.34 4 13 C2.60955102 9.12137916 2 6.13537997 2 2 C1.34 2 0.68 2 0 2 C0 1.34 0 0.68 0 0 Z " fill="#BFEEC8" transform="translate(540,303)"/>
<path d="M0 0 C1.32 0.66 2.64 1.32 4 2 C4 2.99 4 3.98 4 5 C4.66 5 5.32 5 6 5 C6 3.35 6 1.7 6 0 C6.66 0 7.32 0 8 0 C8 3.96 8 7.92 8 12 C9.32 12.66 10.64 13.32 12 14 C12 15.32 12 16.64 12 18 C12.66 18 13.32 18 14 18 C14.66 19.98 15.32 21.96 16 24 C16.99 24 17.98 24 19 24 C19.33 25.98 19.66 27.96 20 30 C19.34 30 18.68 30 18 30 C18 29.34 18 28.68 18 28 C17.01 28 16.02 28 15 28 C15 27.01 15 26.02 15 25 C13.68 25 12.36 25 11 25 C11 23.02 11 21.04 11 19 C10.34 19 9.68 19 9 19 C8.67 19.66 8.34 20.32 8 21 C7 22 7 22 3.4375 22.0625 C2.303125 22.041875 1.16875 22.02125 0 22 C0 21.34 0 20.68 0 20 C-0.66 20 -1.32 20 -2 20 C-2.25 12.375 -2.25 12.375 0 9 C1.32 9 2.64 9 4 9 C4 8.01 4 7.02 4 6 C3.34 6 2.68 6 2 6 C2 4.68 2 3.36 2 2 C1.34 2 0.68 2 0 2 C0 1.34 0 0.68 0 0 Z " fill="#AAC68D" transform="translate(420,121)"/>
<path d="M0 0 C2.475 0.99 2.475 0.99 5 2 C5 2.99 5 3.98 5 5 C5.99 5 6.98 5 8 5 C8.67595315 6.41225926 9.34040059 7.83002905 10 9.25 C10.37125 10.03890625 10.7425 10.8278125 11.125 11.640625 C12 14 12 14 12 18 C13.2065625 18.309375 13.2065625 18.309375 14.4375 18.625 C15.283125 19.07875 16.12875 19.5325 17 20 C17.8125 23.125 17.8125 23.125 18 26 C18.66 26 19.32 26 20 26 C20 27.32 20 28.64 20 30 C21.32 30.66 22.64 31.32 24 32 C24 33.32 24 34.64 24 36 C25.32 36.66 26.64 37.32 28 38 C28 39.32 28 40.64 28 42 C29.32 42.66 30.64 43.32 32 44 C32 45.32 32 46.64 32 48 C31.34 48 30.68 48 30 48 C29.67 47.01 29.34 46.02 29 45 C28.030625 44.62875 27.06125 44.2575 26.0625 43.875 C23 42 23 42 22.37109375 39.9140625 C22.12369792 38.3046875 21.87630208 36.6953125 21.62890625 35.0859375 C21.13692196 32.6165957 21.13692196 32.6165957 17.9375 31.125 C16.4834375 30.568125 16.4834375 30.568125 15 30 C14.67 29.01 14.34 28.02 14 27 C13.01 26.34 12.02 25.68 11 25 C9.32358826 21.64717651 9 19.83880578 9 16 C8.01 16 7.02 16 6 16 C5.71125 15.2575 5.4225 14.515 5.125 13.75 C4.09797087 11.07763188 4.09797087 11.07763188 2.875 9 C1.80623727 6.55711377 1.8534307 4.63824739 2 2 C1.34 2 0.68 2 0 2 C0 1.34 0 0.68 0 0 Z " fill="#DCFDE6" transform="translate(384,67)"/>
<path d="M0 0 C0.33 0 0.66 0 1 0 C1 9.9 1 19.8 1 30 C0.34 30 -0.32 30 -1 30 C-1 40.56 -1 51.12 -1 62 C-1.66 62 -2.32 62 -3 62 C-3 71.9 -3 81.8 -3 92 C-3.99 92 -4.98 92 -6 92 C-6.02907584 87.6041806 -6.0468244 83.20838601 -6.0625 78.8125 C-6.07087891 77.56662109 -6.07925781 76.32074219 -6.08789062 75.03710938 C-6.09111328 73.83505859 -6.09433594 72.63300781 -6.09765625 71.39453125 C-6.10289307 70.28956299 -6.10812988 69.18459473 -6.11352539 68.04614258 C-6.00901923 65.24200621 -5.64097959 62.72582671 -5 60 C-4.01 60 -3.02 60 -2 60 C-2 41.19 -2 22.38 -2 3 C-1.34 3 -0.68 3 0 3 C0 2.01 0 1.02 0 0 Z " fill="#FDF8CC" transform="translate(413,303)"/>
<path d="M0 0 C0.33 0 0.66 0 1 0 C1 7.92 1 15.84 1 24 C-18.14 24 -37.28 24 -57 24 C-57.33 24.66 -57.66 25.32 -58 26 C-58 24.68 -58 23.36 -58 22 C-54.34233221 20.32129667 -51.58013488 19.76897053 -47.56713867 19.86474609 C-45.97605537 19.89500381 -45.97605537 19.89500381 -44.35282898 19.9258728 C-43.2193251 19.95806915 -42.08582123 19.9902655 -40.91796875 20.0234375 C-39.16399529 20.06097641 -39.16399529 20.06097641 -37.37458801 20.09927368 C-33.64525833 20.18134787 -29.91646808 20.27798776 -26.1875 20.375 C-23.65692297 20.4332523 -21.1263239 20.4905553 -18.59570312 20.546875 C-12.39682598 20.68690843 -6.19839275 20.84000476 0 21 C0 14.07 0 7.14 0 0 Z " fill="#F8D4DE" transform="translate(125,235)"/>
<path d="M0 0 C0.33 0 0.66 0 1 0 C1 13.2 1 26.4 1 40 C-0.32 40 -1.64 40 -3 40 C-3 59.8 -3 79.6 -3 100 C-4.485 100.495 -4.485 100.495 -6 101 C-6 90.44 -6 79.88 -6 69 C-5.34 69 -4.68 69 -4 69 C-4 59.1 -4 49.2 -4 39 C-3.01 39 -2.02 39 -1 39 C-1.00523682 38.13834229 -1.01047363 37.27668457 -1.01586914 36.38891602 C-1.03304604 33.1516139 -1.04551531 29.91433524 -1.05493164 26.67700195 C-1.05991957 25.28343943 -1.06671231 23.88988202 -1.07543945 22.49633789 C-1.12158795 14.93069922 -1.05558458 7.50545574 0 0 Z " fill="#FBF8D7" transform="translate(428,142)"/>
<path d="M0 0 C16.83 0 33.66 0 51 0 C51 0.66 51 1.32 51 2 C53.31 2 55.62 2 58 2 C58 1.34 58 0.68 58 0 C61.96 0 65.92 0 70 0 C70 0.66 70 1.32 70 2 C95.74 2 121.48 2 148 2 C147.67 3.32 147.34 4.64 147 6 C147 5.01 147 4.02 147 3 C115.65 3 84.3 3 52 3 C52 5.31 52 7.62 52 10 C51.34 10 50.68 10 50 10 C50 7.03 50 4.06 50 1 C33.5 1.33 17 1.66 0 2 C0 1.34 0 0.68 0 0 Z " fill="#F2BFBF" transform="translate(368,263)"/>
<path d="M0 0 C1.47118538 0.0001133 1.47118538 0.0001133 2.97209167 0.00022888 C4.028423 0.00539017 5.08475433 0.01055145 6.1730957 0.01586914 C7.79813774 0.01799156 7.79813774 0.01799156 9.45600891 0.02015686 C12.9203262 0.0257598 16.38457915 0.03831281 19.84887695 0.05102539 C22.19588123 0.05604001 24.54288652 0.06060298 26.88989258 0.06469727 C32.64707887 0.07573019 38.404217 0.09299682 44.16137695 0.11352539 C44.16137695 3.08352539 44.16137695 6.05352539 44.16137695 9.11352539 C43.50137695 9.11352539 42.84137695 9.11352539 42.16137695 9.11352539 C42.16137695 19.01352539 42.16137695 28.91352539 42.16137695 39.11352539 C41.83137695 39.11352539 41.50137695 39.11352539 41.16137695 39.11352539 C40.31493596 30.67392654 40.03433636 22.34176037 40.09887695 13.86352539 C40.11950195 9.98602539 40.14012695 6.10852539 40.16137695 2.11352539 C24.32137695 2.44352539 8.48137695 2.77352539 -7.83862305 3.11352539 C-7.83862305 2.45352539 -7.83862305 1.79352539 -7.83862305 1.11352539 C-4.90944012 0.13713108 -3.04836566 -0.00783642 0 0 Z " fill="#FDE9F1" transform="translate(373.838623046875,263.886474609375)"/>
<path d="M0 0 C0.99 0 1.98 0 3 0 C3.495 2.97 3.495 2.97 4 6 C4.66 6 5.32 6 6 6 C6.66 7.98 7.32 9.96 8 12 C8.66 12 9.32 12 10 12 C10 13.32 10 14.64 10 16 C10.66 16 11.32 16 12 16 C12 16.66 12 17.32 12 18 C9.525 17.01 9.525 17.01 7 16 C7 15.01 7 14.02 7 13 C6.01 13.33 5.02 13.66 4 14 C4 27.86 4 41.72 4 56 C-7.88 56 -19.76 56 -32 56 C-32 55.67 -32 55.34 -32 55 C-20.45 55 -8.9 55 3 55 C2.505 37.675 2.505 37.675 2 20 C1.34 20 0.68 20 0 20 C0 17.69 0 15.38 0 13 C0.99 13 1.98 13 3 13 C3 11.02 3 9.04 3 7 C2.34 7 1.68 7 1 7 C0.505 3.535 0.505 3.535 0 0 Z " fill="#A7AD9F" transform="translate(476,205)"/>
<path d="M0 0 C0.66 0 1.32 0 2 0 C2 9.57 2 19.14 2 29 C-10.54 29 -23.08 29 -36 29 C-36 28.01 -36 27.02 -36 26 C-24.12 26 -12.24 26 0 26 C0 17.42 0 8.84 0 0 Z " fill="#66232A" transform="translate(480,235)"/>
<path d="M0 0 C0.66 0.33 1.32 0.66 2 1 C4.952631 1.14524511 7.88532391 1.23435093 10.83984375 1.28125 C11.71774063 1.29965942 12.59563751 1.31806885 13.50013733 1.33703613 C16.31252241 1.39588029 19.12496871 1.44864929 21.9375 1.5 C25.63424422 1.56762144 29.3307935 1.64131804 33.02734375 1.71875 C34.30713356 1.73911316 34.30713356 1.73911316 35.61277771 1.7598877 C38.97138551 1.8305894 41.79312084 1.93104028 45 3 C45 3.66 45 4.32 45 5 C29.16 5 13.32 5 -3 5 C-3 3.68 -3 2.36 -3 1 C-2.01 0.67 -1.02 0.34 0 0 Z " fill="#FDD9E1" transform="translate(517,258)"/>
<path d="M0 0 C0.99 0 1.98 0 3 0 C3 2.31 3 4.62 3 7 C2.34 7 1.68 7 1 7 C1.01160156 7.63808594 1.02320313 8.27617187 1.03515625 8.93359375 C1.04417969 9.75988281 1.05320313 10.58617187 1.0625 11.4375 C1.07410156 12.26121094 1.08570313 13.08492187 1.09765625 13.93359375 C1 16 1 16 0 17 C-0.33 24.26 -0.66 31.52 -1 39 C20.12 39 41.24 39 63 39 C63 37.35 63 35.7 63 34 C63.33 34 63.66 34 64 34 C64 36.31 64 38.62 64 41 C31.33 40.505 31.33 40.505 -2 40 C-2 28.78 -2 17.56 -2 6 C-1.34 6 -0.68 6 0 6 C0 4.02 0 2.04 0 0 Z " fill="#EBB5BF" transform="translate(130,219)"/>
<path d="M0 0 C0.33 0 0.66 0 1 0 C1 8.91 1 17.82 1 27 C9.91 26.67 18.82 26.34 28 26 C27.01 25.67 26.02 25.34 25 25 C22.33714599 20.52640526 20 15.28822637 20 10 C20.66 10 21.32 10 22 10 C22 10.66 22 11.32 22 12 C22.99 12 23.98 12 25 12 C25.33 13.98 25.66 15.96 26 18 C26.99 18 27.98 18 29 18 C30 21 30 21 30 28 C20.1 28 10.2 28 0 28 C0 18.76 0 9.52 0 0 Z " fill="#E0CCC7" transform="translate(482,235)"/>
<path d="M0 0 C0.66 0 1.32 0 2 0 C2.20638953 32.51428851 2.20638953 32.51428851 1 46 C-0.32 46 -1.64 46 -3 46 C-3 40.72 -3 35.44 -3 30 C-2.01 30 -1.02 30 0 30 C0 20.1 0 10.2 0 0 Z " fill="#E5D7A3" transform="translate(410,365)"/>
<path d="M0 0 C0.33 0 0.66 0 1 0 C0.67 13.2 0.34 26.4 0 40 C-0.99 40 -1.98 40 -3 40 C-3 30.1 -3 20.2 -3 10 C-2.34 10 -1.68 10 -1 10 C-1 7.69 -1 5.38 -1 3 C-2.98 3 -4.96 3 -7 3 C-7 2.67 -7 2.34 -7 2 C-4.69 2 -2.38 2 0 2 C0 1.34 0 0.68 0 0 Z " fill="#E6D79E" transform="translate(427,141)"/>
<path d="M0 0 C0.99 0 1.98 0 3 0 C3.33 1.98 3.66 3.96 4 6 C5.32 6 6.64 6 8 6 C8.83819158 7.62249941 9.6704116 9.24808497 10.5 10.875 C10.9640625 11.77992188 11.428125 12.68484375 11.90625 13.6171875 C13 16 13 16 13 18 C13.66 18 14.32 18 15 18 C15.33 20.64 15.66 23.28 16 26 C15.01 26 14.02 26 13 26 C12.67 24.02 12.34 22.04 12 20 C11.01 20 10.02 20 9 20 C8.67 18.02 8.34 16.04 8 14 C7.34 14 6.68 14 6 14 C6 12.68 6 11.36 6 10 C5.01 10 4.02 10 3 10 C3 9.01 3 8.02 3 7 C2.34 7 1.68 7 1 7 C0.67 4.69 0.34 2.38 0 0 Z " fill="#AEDDB7" transform="translate(524,277)"/>
<path d="M0 0 C1.98 0 3.96 0 6 0 C6 0.66 6 1.32 6 2 C6.66 2 7.32 2 8 2 C8 3.98 8 5.96 8 8 C11.3 8 14.6 8 18 8 C18 8.66 18 9.32 18 10 C14.04 10 10.08 10 6 10 C6 10.66 6 11.32 6 12 C4.02 12 2.04 12 0 12 C0 8.04 0 4.08 0 0 Z " fill="#625061" transform="translate(420,253)"/>
<path d="M0 0 C2.31 0 4.62 0 7 0 C7 0.66 7 1.32 7 2 C7.66 2 8.32 2 9 2 C9.125 9.75 9.125 9.75 8 12 C5.69 12 3.38 12 1 12 C1 11.34 1 10.68 1 10 C0.34 10 -0.32 10 -1 10 C-1.125 2.25 -1.125 2.25 0 0 Z " fill="#1B5346" transform="translate(465,189)"/>
<path d="M0 0 C0.94875 0.04125 1.8975 0.0825 2.875 0.125 C2.875 0.785 2.875 1.445 2.875 2.125 C3.535 2.125 4.195 2.125 4.875 2.125 C4.875 4.765 4.875 7.405 4.875 10.125 C4.215 10.125 3.555 10.125 2.875 10.125 C2.875 10.785 2.875 11.445 2.875 12.125 C0.895 12.125 -1.085 12.125 -3.125 12.125 C-3.125 11.465 -3.125 10.805 -3.125 10.125 C-3.785 10.125 -4.445 10.125 -5.125 10.125 C-5.3203125 4.0703125 -5.3203125 4.0703125 -5.125 2.125 C-3.125 0.125 -3.125 0.125 0 0 Z " fill="#6F3755" transform="translate(363.125,254.875)"/>
<path d="M0 0 C0.94875 0.04125 1.8975 0.0825 2.875 0.125 C2.875 0.785 2.875 1.445 2.875 2.125 C3.535 2.125 4.195 2.125 4.875 2.125 C4.875 4.765 4.875 7.405 4.875 10.125 C4.215 10.125 3.555 10.125 2.875 10.125 C2.875 10.785 2.875 11.445 2.875 12.125 C0.895 12.125 -1.085 12.125 -3.125 12.125 C-3.125 11.465 -3.125 10.805 -3.125 10.125 C-3.785 10.125 -4.445 10.125 -5.125 10.125 C-5.3203125 4.0703125 -5.3203125 4.0703125 -5.125 2.125 C-3.125 0.125 -3.125 0.125 0 0 Z " fill="#284E5F" transform="translate(137.125,188.875)"/>
<path d="M0 0 C0.94875 0.04125 1.8975 0.0825 2.875 0.125 C2.875 0.785 2.875 1.445 2.875 2.125 C3.535 2.125 4.195 2.125 4.875 2.125 C4.875 4.765 4.875 7.405 4.875 10.125 C4.215 10.125 3.555 10.125 2.875 10.125 C2.875 10.785 2.875 11.445 2.875 12.125 C0.895 12.125 -1.085 12.125 -3.125 12.125 C-3.125 11.465 -3.125 10.805 -3.125 10.125 C-3.785 10.125 -4.445 10.125 -5.125 10.125 C-5.3203125 4.0703125 -5.3203125 4.0703125 -5.125 2.125 C-3.125 0.125 -3.125 0.125 0 0 Z " fill="#235069" transform="translate(187.125,134.875)"/>
<path d="M0 0 C0.94875 0.04125 1.8975 0.0825 2.875 0.125 C2.875 0.785 2.875 1.445 2.875 2.125 C3.535 2.125 4.195 2.125 4.875 2.125 C4.875 4.765 4.875 7.405 4.875 10.125 C4.215 10.125 3.555 10.125 2.875 10.125 C2.875 10.785 2.875 11.445 2.875 12.125 C0.895 12.125 -1.085 12.125 -3.125 12.125 C-3.125 11.465 -3.125 10.805 -3.125 10.125 C-3.785 10.125 -4.445 10.125 -5.125 10.125 C-5.3203125 4.0703125 -5.3203125 4.0703125 -5.125 2.125 C-3.125 0.125 -3.125 0.125 0 0 Z " fill="#265063" transform="translate(347.125,96.875)"/>
<path d="M0 0 C0.94875 0.04125 1.8975 0.0825 2.875 0.125 C2.875 0.785 2.875 1.445 2.875 2.125 C3.535 2.125 4.195 2.125 4.875 2.125 C4.875 4.765 4.875 7.405 4.875 10.125 C4.215 10.125 3.555 10.125 2.875 10.125 C2.875 10.785 2.875 11.445 2.875 12.125 C0.895 12.125 -1.085 12.125 -3.125 12.125 C-3.125 11.465 -3.125 10.805 -3.125 10.125 C-3.785 10.125 -4.445 10.125 -5.125 10.125 C-5.3203125 4.0703125 -5.3203125 4.0703125 -5.125 2.125 C-3.125 0.125 -3.125 0.125 0 0 Z " fill="#254F67" transform="translate(259.125,92.875)"/>
<path d="M0 0 C0.94875 0.04125 1.8975 0.0825 2.875 0.125 C2.875 0.785 2.875 1.445 2.875 2.125 C3.535 2.125 4.195 2.125 4.875 2.125 C4.875 5.095 4.875 8.065 4.875 11.125 C1.575 11.125 -1.725 11.125 -5.125 11.125 C-5.3203125 4.2890625 -5.3203125 4.2890625 -5.125 2.125 C-3.125 0.125 -3.125 0.125 0 0 Z " fill="#2F3B50" transform="translate(275.125,250.875)"/>
<path d="M0 0 C0.94875 0.04125 1.8975 0.0825 2.875 0.125 C2.875 0.785 2.875 1.445 2.875 2.125 C3.535 2.125 4.195 2.125 4.875 2.125 C4.875 5.095 4.875 8.065 4.875 11.125 C1.575 11.125 -1.725 11.125 -5.125 11.125 C-5.3203125 4.2890625 -5.3203125 4.2890625 -5.125 2.125 C-3.125 0.125 -3.125 0.125 0 0 Z " fill="#2F3B4E" transform="translate(199.125,250.875)"/>
<path d="M0 0 C2.4375 0.625 2.4375 0.625 5 2 C5.8125 5.125 5.8125 5.125 6 8 C6.66 8 7.32 8 8 8 C8 9.32 8 10.64 8 12 C9.32 12.66 10.64 13.32 12 14 C12 15.32 12 16.64 12 18 C13.32 18.66 14.64 19.32 16 20 C16 21.32 16 22.64 16 24 C17.32 24.66 18.64 25.32 20 26 C20 27.32 20 28.64 20 30 C19.34 30 18.68 30 18 30 C17.67 29.01 17.34 28.02 17 27 C15.5459375 26.443125 15.5459375 26.443125 14.0625 25.875 C11 24 11 24 10.30078125 21.87890625 C10.02196499 20.28018918 9.79203881 18.67199444 9.6171875 17.05859375 C9.31167969 16.03958984 9.31167969 16.03958984 9 15 C7.67922893 14.30877934 6.34575864 13.64121441 5 13 C4.25 9.375 4.25 9.375 4 6 C3.34 6 2.68 6 2 6 C1.34 4.02 0.68 2.04 0 0 Z " fill="#96D1A1" transform="translate(396,85)"/>
<path d="M0 0 C1.32 0.33 2.64 0.66 4 1 C4.33 2.32 4.66 3.64 5 5 C6.32 5 7.64 5 9 5 C10.17571451 8.67410785 10.07366746 12.16929183 10 16 C10.66 16 11.32 16 12 16 C12 16.66 12 17.32 12 18 C12.66 18 13.32 18 14 18 C14 19.32 14 20.64 14 22 C13.01 22 12.02 22 11 22 C11 21.01 11 20.02 11 19 C10.01 18.67 9.02 18.34 8 18 C5.33797479 15.44036037 4.83986564 13.42915038 4.5625 9.875 C4.376875 8.59625 4.19125 7.3175 4 6 C2.07935207 4.4100567 2.07935207 4.4100567 0 4 C0 2.68 0 1.36 0 0 Z " fill="#99D3A4" transform="translate(488,223)"/>
<path d="M0 0 C0.99 0 1.98 0 3 0 C3 10.23 3 20.46 3 31 C2.01 31.33 1.02 31.66 0 32 C0 21.44 0 10.88 0 0 Z " fill="#FEFACA" transform="translate(422,211)"/>
<path d="M0 0 C0.66 0 1.32 0 2 0 C2 2.97 2 5.94 2 9 C3.98 9 5.96 9 8 9 C8 9.33 8 9.66 8 10 C6.02 10 4.04 10 2 10 C2.020625 11.134375 2.04125 12.26875 2.0625 13.4375 C2 17 2 17 1 18 C-0.59610982 18.09333705 -2.19633428 18.11745372 -3.79516602 18.11352539 C-4.81614883 18.11344986 -5.83713165 18.11337433 -6.88905334 18.11329651 C-7.9994548 18.10813522 -9.10985626 18.10297394 -10.25390625 18.09765625 C-11.38448959 18.0962413 -12.51507294 18.09482635 -13.67991638 18.09336853 C-17.30747065 18.08775019 -20.93496424 18.07519458 -24.5625 18.0625 C-27.01497307 18.05748736 -29.4674471 18.05292405 -31.91992188 18.04882812 C-37.94663545 18.0377748 -43.97331339 18.02101884 -50 18 C-49.67 16.68 -49.34 15.36 -49 14 C-49 14.99 -49 15.98 -49 17 C-32.83 17 -16.66 17 0 17 C0 11.39 0 5.78 0 0 Z " fill="#EEC4CB" transform="translate(418,243)"/>
<path d="M0 0 C0.99 0.495 0.99 0.495 2 1 C2 1.99 2 2.98 2 4 C2.78375 4.144375 3.5675 4.28875 4.375 4.4375 C7 5 7 5 9 6 C9 6.99 9 7.98 9 9 C10.98 9 12.96 9 15 9 C14.67 10.98 14.34 12.96 14 15 C13.34 15 12.68 15 12 15 C11.71125 14.360625 11.4225 13.72125 11.125 13.0625 C10.17176549 10.84793921 10.17176549 10.84793921 8 10 C8 10.66 8 11.32 8 12 C8.66 12 9.32 12 10 12 C10 13.32 10 14.64 10 16 C10.66 16 11.32 16 12 16 C12 16.99 12 17.98 12 19 C10.68 19 9.36 19 8 19 C7.67 16.36 7.34 13.72 7 11 C6.401875 10.938125 5.80375 10.87625 5.1875 10.8125 C3 10 3 10 1.25 7.75 C-0.05518125 4.87860126 -0.26648789 3.10902534 0 0 Z " fill="#D4FBD8" transform="translate(412,111)"/>
<path d="M0 0 C14.52 0 29.04 0 44 0 C44 0.33 44 0.66 44 1 C30.47 1 16.94 1 3 1 C3 1.99 3 2.98 3 4 C3.66 4 4.32 4 5 4 C5.33 6.64 5.66 9.28 6 12 C3.525 11.01 3.525 11.01 1 10 C1 9.01 1 8.02 1 7 C0.34 7 -0.32 7 -1 7 C-0.67 4.69 -0.34 2.38 0 0 Z " fill="#D0D5C1" transform="translate(518,265)"/>
<path d="M0 0 C1.98 0 3.96 0 6 0 C6 3.96 6 7.92 6 12 C4.02 12 2.04 12 0 12 C0 11.34 0 10.68 0 10 C-0.66 10 -1.32 10 -2 10 C-2.1953125 3.9453125 -2.1953125 3.9453125 -2 2 C-1.34 1.34 -0.68 0.68 0 0 Z " fill="#2F5655" transform="translate(420,131)"/>
<path d="M0 0 C0.99 0 1.98 0 3 0 C3 2.97 3 5.94 3 9 C2.34 9 1.68 9 1 9 C1 18.9 1 28.8 1 39 C0.67 39 0.34 39 0 39 C-0.83155327 30.60680512 -1.15511453 22.3070698 -1.125 13.875 C-1.12886719 12.75351562 -1.13273437 11.63203125 -1.13671875 10.4765625 C-1.13542969 9.40921875 -1.13414062 8.341875 -1.1328125 7.2421875 C-1.13168457 6.2816748 -1.13055664 5.32116211 -1.12939453 4.33154297 C-1 2 -1 2 0 0 Z " fill="#FBF6D8" transform="translate(415,264)"/>
<path d="M0 0 C0.99 0 1.98 0 3 0 C3.33 1.98 3.66 3.96 4 6 C4.99 6 5.98 6 7 6 C7 6.99 7 7.98 7 9 C8.32 9 9.64 9 11 9 C11.33 10.32 11.66 11.64 12 13 C10.68 12.67 9.36 12.34 8 12 C8 11.34 8 10.68 8 10 C7.34 10 6.68 10 6 10 C6.33 11.98 6.66 13.96 7 16 C8.32 16.33 9.64 16.66 11 17 C10.01 17.33 9.02 17.66 8 18 C6.5 16.8125 6.5 16.8125 5 15 C4.8125 12.3125 4.8125 12.3125 5 10 C4.34 10 3.68 10 3 10 C3 9.01 3 8.02 3 7 C2.01 7 1.02 7 0 7 C0 4.69 0 2.38 0 0 Z " fill="#C3EECB" transform="translate(440,151)"/>
<path d="M0 0 C0.99 0 1.98 0 3 0 C3 1.32 3 2.64 3 4 C4.32 4 5.64 4 7 4 C7.66 5.98 8.32 7.96 9 10 C9.99 10 10.98 10 12 10 C12.33 11.98 12.66 13.96 13 16 C12.34 16 11.68 16 11 16 C11 15.34 11 14.68 11 14 C10.01 14 9.02 14 8 14 C8 13.01 8 12.02 8 11 C6.68 11 5.36 11 4 11 C4 9.02 4 7.04 4 5 C3.34 5 2.68 5 2 5 C1.67 5.66 1.34 6.32 1 7 C0 6 0 6 -0.0625 2.9375 C-0.041875 1.968125 -0.02125 0.99875 0 0 Z " fill="#B4E9B8" transform="translate(427,135)"/>
<path d="M0 0 C2.475 0.99 2.475 0.99 5 2 C5 2.99 5 3.98 5 5 C5.598125 5.020625 6.19625 5.04125 6.8125 5.0625 C9 6 9 6 10.75 9.25 C11.83892401 12.51677203 12.30690389 14.6240572 12 18 C11.01 18 10.02 18 9 18 C8.67 16.02 8.34 14.04 8 12 C7.34 12 6.68 12 6 12 C6 10.68 6 9.36 6 8 C5.34 8 4.68 8 4 8 C4 7.34 4 6.68 4 6 C3.34 6 2.68 6 2 6 C2 4.68 2 3.36 2 2 C1.34 2 0.68 2 0 2 C0 1.34 0 0.68 0 0 Z " fill="#A5DAAD" transform="translate(556,327)"/>
<path d="M0 0 C1.98 0.99 1.98 0.99 4 2 C4 3.32 4 4.64 4 6 C4.639375 6.268125 5.27875 6.53625 5.9375 6.8125 C8 8 8 8 9 11 C9.99 11.33 10.98 11.66 12 12 C12 13.98 12 15.96 12 18 C11.34 18 10.68 18 10 18 C10 16.68 10 15.36 10 14 C7.03 13.505 7.03 13.505 4 13 C2.80712589 9.12315913 2 6.08378077 2 2 C1.34 2 0.68 2 0 2 C0 1.34 0 0.68 0 0 Z " fill="#98D29A" transform="translate(540,303)"/>
<path d="M0 0 C2.475 0.99 2.475 0.99 5 2 C5 2.99 5 3.98 5 5 C5.99 5 6.98 5 8 5 C8.67595315 6.41225926 9.34040059 7.83002905 10 9.25 C10.37125 10.03890625 10.7425 10.8278125 11.125 11.640625 C12 14 12 14 12 18 C11.34 18 10.68 18 10 18 C10 16.68 10 15.36 10 14 C9.34 14 8.68 14 8 14 C8 13.34 8 12.68 8 12 C7.34 12 6.68 12 6 12 C6 10.68 6 9.36 6 8 C5.34 8 4.68 8 4 8 C4 7.34 4 6.68 4 6 C3.34 6 2.68 6 2 6 C2 4.68 2 3.36 2 2 C1.34 2 0.68 2 0 2 C0 1.34 0 0.68 0 0 Z " fill="#A0D1A8" transform="translate(384,67)"/>
<path d="M0 0 C0.33 0.66 0.66 1.32 1 2 C3.52733235 2.65555119 3.52733235 2.65555119 6 3 C6 5.31 6 7.62 6 10 C4.02 10 2.04 10 0 10 C0 7.69 0 5.38 0 3 C-0.66 2.67 -1.32 2.34 -2 2 C-1.34 1.34 -0.68 0.68 0 0 Z " fill="#2C6181" transform="translate(272,251)"/>
<path d="M0 0 C0.33 0.66 0.66 1.32 1 2 C3.52733235 2.65555119 3.52733235 2.65555119 6 3 C6 5.31 6 7.62 6 10 C4.02 10 2.04 10 0 10 C0 7.69 0 5.38 0 3 C-0.66 2.67 -1.32 2.34 -2 2 C-1.34 1.34 -0.68 0.68 0 0 Z " fill="#2B6183" transform="translate(196,251)"/>
<path d="M0 0 C0.99 0 1.98 0 3 0 C3 2.31 3 4.62 3 7 C2.34 7 1.68 7 1 7 C1 9.97 1 12.94 1 16 C0.01 16 -0.98 16 -2 16 C-2 12.7 -2 9.4 -2 6 C-1.34 6 -0.68 6 0 6 C0 4.02 0 2.04 0 0 Z " fill="#757676" transform="translate(130,219)"/>
<path d="M0 0 C0.33 0 0.66 0 1 0 C1 5.61 1 11.22 1 17 C0.01 17 -0.98 17 -2 17 C-2.05398987 14.72942623 -2.09278742 12.45848712 -2.125 10.1875 C-2.14820313 8.92292969 -2.17140625 7.65835938 -2.1953125 6.35546875 C-2 3 -2 3 0 0 Z " fill="#FEF8C8" transform="translate(417,243)"/>
<path d="M0 0 C2.475 0.495 2.475 0.495 5 1 C5.0825 1.78375 5.165 2.5675 5.25 3.375 C5.72806339 6.14749104 5.72806339 6.14749104 8.0625 7.3125 C8.701875 7.539375 9.34125 7.76625 10 8 C10 9.32 10 10.64 10 12 C9.34 12 8.68 12 8 12 C7.67 11.01 7.34 10.02 7 9 C6.01 8.566875 5.02 8.13375 4 7.6875 C3.01 7.130625 2.02 6.57375 1 6 C0.125 2.8125 0.125 2.8125 0 0 Z " fill="#A4DEAE" transform="translate(406,103)"/>
<path d="M0 0 C0.66 0 1.32 0 2 0 C2 0.66 2 1.32 2 2 C2.99 2 3.98 2 5 2 C5.33 3.98 5.66 5.96 6 8 C6.99 8 7.98 8 9 8 C9.33 9.98 9.66 11.96 10 14 C9.34 14 8.68 14 8 14 C8 13.34 8 12.68 8 12 C7.01 12 6.02 12 5 12 C4.67 10.02 4.34 8.04 4 6 C3.01 6 2.02 6 1 6 C0.67 4.02 0.34 2.04 0 0 Z " fill="#9DD5AC" transform="translate(572,351)"/>
<path d="M0 0 C0.66 0 1.32 0 2 0 C2 2.97 2 5.94 2 9 C3.98 9 5.96 9 8 9 C8 9.33 8 9.66 8 10 C6.02 10 4.04 10 2 10 C2 12.31 2 14.62 2 17 C0.35 17.33 -1.3 17.66 -3 18 C-2.01 17.67 -1.02 17.34 0 17 C0 11.39 0 5.78 0 0 Z " fill="#CEC79C" transform="translate(418,243)"/>
<path d="M0 0 C0.99 0.33 1.98 0.66 3 1 C3 2.32 3 3.64 3 5 C4.32 5 5.64 5 7 5 C7.33 5.99 7.66 6.98 8 8 C8.66 8.33 9.32 8.66 10 9 C10.6328125 11.06640625 10.6328125 11.06640625 11.125 13.5625 C11.29257812 14.38878906 11.46015625 15.21507812 11.6328125 16.06640625 C11.75398438 16.70449219 11.87515625 17.34257812 12 18 C11.34 18 10.68 18 10 18 C9.67 16.02 9.34 14.04 9 12 C8.01 12 7.02 12 6 12 C5.67 10.02 5.34 8.04 5 6 C4.01 6 3.02 6 2 6 C0 3 0 3 0 0 Z " fill="#DBFBDF" transform="translate(434,139)"/>
<path d="M0 0 C1.98 0 3.96 0 6 0 C6 0.66 6 1.32 6 2 C8.97 2.495 8.97 2.495 12 3 C12 3.99 12 4.98 12 6 C12.66 6 13.32 6 14 6 C14 6.66 14 7.32 14 8 C11.03 7.505 11.03 7.505 8 7 C8 6.01 8 5.02 8 4 C5.36 3.67 2.72 3.34 0 3 C0 2.01 0 1.02 0 0 Z " fill="#7E7F7F" transform="translate(384,113)"/>
<path d="M0 0 C0.99 0 1.98 0 3 0 C3.33 1.98 3.66 3.96 4 6 C4.99 6 5.98 6 7 6 C7 6.66 7 7.32 7 8 C7.66 8 8.32 8 9 8 C9.33 9.65 9.66 11.3 10 13 C8.68 13 7.36 13 6 13 C6 11.68 6 10.36 6 9 C5.01 9 4.02 9 3 9 C2.01 6.03 1.02 3.06 0 0 Z " fill="#D9FCDF" transform="translate(533,297)"/>
<path d="M0 0 C1.32 0.33 2.64 0.66 4 1 C4.33 2.32 4.66 3.64 5 5 C6.32 5 7.64 5 9 5 C9.33 6.98 9.66 8.96 10 11 C8.68 10.67 7.36 10.34 6 10 C6 8.68 6 7.36 6 6 C4.35 5.67 2.7 5.34 1 5 C0.67 3.35 0.34 1.7 0 0 Z " fill="#BCEAC6" transform="translate(488,223)"/>
<path d="M0 0 C0.66 0 1.32 0 2 0 C2.08071788 2.79224073 2.14035408 5.58216566 2.1875 8.375 C2.22520508 9.56609375 2.22520508 9.56609375 2.26367188 10.78125 C2.29004405 12.85586148 2.15486462 14.93100865 2 17 C1.01 17.66 0.02 18.32 -1 19 C-1.66 18.67 -2.32 18.34 -3 18 C-3 17.34 -3 16.68 -3 16 C-2.01 16 -1.02 16 0 16 C0 10.72 0 5.44 0 0 Z " fill="#FEFCDC" transform="translate(411,395)"/>
<path d="M0 0 C0.33 0.99 0.66 1.98 1 3 C2.65 3 4.3 3 6 3 C6.33 5.64 6.66 8.28 7 11 C8.32 11.33 9.64 11.66 11 12 C11.33 13.98 11.66 15.96 12 18 C11.34 18 10.68 18 10 18 C9.67 16.02 9.34 14.04 9 12 C8.01 12 7.02 12 6 12 C5.67 10.02 5.34 8.04 5 6 C4.01 6 3.02 6 2 6 C2 5.34 2 4.68 2 4 C1.34 4 0.68 4 0 4 C0 2.68 0 1.36 0 0 Z " fill="#D9FADE" transform="translate(502,241)"/>
<path d="M0 0 C0.33 0 0.66 0 1 0 C1 5.28 1 10.56 1 16 C-0.65 16.33 -2.3 16.66 -4 17 C-3.125 12.125 -3.125 12.125 -2 11 C-1.60545777 9.15400312 -1.25823134 7.29774178 -0.9375 5.4375 C-0.76089844 4.42558594 -0.58429688 3.41367187 -0.40234375 2.37109375 C-0.20318359 1.19740234 -0.20318359 1.19740234 0 0 Z " fill="#FBF7E0" transform="translate(431,43)"/>
<path d="M0 0 C0.66 0 1.32 0 2 0 C2 0.66 2 1.32 2 2 C2.804375 2.12375 3.60875 2.2475 4.4375 2.375 C5.7059375 2.684375 5.7059375 2.684375 7 3 C8.35439668 5.70879335 8.06501451 8.00933268 8 11 C7.34 11 6.68 11 6 11 C5.731875 10.360625 5.46375 9.72125 5.1875 9.0625 C4.11332248 6.66868314 4.11332248 6.66868314 1 6 C0.67 4.02 0.34 2.04 0 0 Z " fill="#9FD0A5" transform="translate(446,161)"/>
<path d="M0 0 C3.96 0 7.92 0 12 0 C12 0.99 12 1.98 12 3 C8.04 3 4.08 3 0 3 C0 2.01 0 1.02 0 0 Z " fill="#FED0DE" transform="translate(426,263)"/>
<path d="M0 0 C2.475 0.99 2.475 0.99 5 2 C5 2.99 5 3.98 5 5 C6.98 5 8.96 5 11 5 C10.67 6.98 10.34 8.96 10 11 C9.34 11 8.68 11 8 11 C7.62875 10.0409375 7.62875 10.0409375 7.25 9.0625 C6.18437567 6.81258459 6.18437567 6.81258459 3.875 6.25 C3.25625 6.1675 2.6375 6.085 2 6 C2 4.68 2 3.36 2 2 C1.34 2 0.68 2 0 2 C0 1.34 0 0.68 0 0 Z " fill="#C2E5B0" transform="translate(416,115)"/>
<path d="M0 0 C0.99 0 1.98 0 3 0 C3.33 1.98 3.66 3.96 4 6 C4.66 6 5.32 6 6 6 C6 7.32 6 8.64 6 10 C5.01 10 4.02 10 3 10 C3 9.01 3 8.02 3 7 C2.34 7 1.68 7 1 7 C0.67 4.69 0.34 2.38 0 0 Z " fill="#A4D9AD" transform="translate(524,277)"/>
<path d="M0 0 C0.99 0.33 1.98 0.66 3 1 C3 2.65 3 4.3 3 6 C4.32 6 5.64 6 7 6 C7 6.99 7 7.98 7 9 C5.35 9 3.7 9 2 9 C2 8.34 2 7.68 2 7 C1.34 7 0.68 7 0 7 C0 4.69 0 2.38 0 0 Z " fill="#1D4659" transform="translate(132,192)"/>
<path d="M0 0 C0.33 0.66 0.66 1.32 1 2 C3.02463255 2.65213292 3.02463255 2.65213292 5 3 C5.33 4.32 5.66 5.64 6 7 C4.02 7 2.04 7 0 7 C0 5.68 0 4.36 0 3 C-0.66 2.67 -1.32 2.34 -2 2 C-1.34 1.34 -0.68 0.68 0 0 Z " fill="#39648D" transform="translate(360,255)"/>
<path d="M0 0 C0.66 0 1.32 0 2 0 C2 0.66 2 1.32 2 2 C2.66 2 3.32 2 4 2 C4 3.32 4 4.64 4 6 C4.66 6 5.32 6 6 6 C6 6.66 6 7.32 6 8 C6.66 8 7.32 8 8 8 C8 9.32 8 10.64 8 12 C8.66 12 9.32 12 10 12 C9.67 12.66 9.34 13.32 9 14 C8.34 13.67 7.68 13.34 7 13 C7 12.01 7 11.02 7 10 C6.01 10 5.02 10 4 10 C3.566875 8.88625 3.566875 8.88625 3.125 7.75 C2.06271472 5.05487538 2.06271472 5.05487538 0.875 2.75 C0 1 0 1 0 0 Z " fill="#CBF7D4" transform="translate(386,73)"/>
<path d="M0 0 C0.99 0.33 1.98 0.66 3 1 C3 2.32 3 3.64 3 5 C3.99 5 4.98 5 6 5 C6.33 6.98 6.66 8.96 7 11 C6.34 11 5.68 11 5 11 C5 10.01 5 9.02 5 8 C4.360625 7.79375 3.72125 7.5875 3.0625 7.375 C1 6 1 6 0.25 2.875 C0.1675 1.92625 0.085 0.9775 0 0 Z " fill="#DEFDE5" transform="translate(566,346)"/>
<path d="M0 0 C1.98 0.99 1.98 0.99 4 2 C4 3.98 4 5.96 4 8 C4.66 8 5.32 8 6 8 C6 9.32 6 10.64 6 12 C6.66 12 7.32 12 8 12 C7.67 12.66 7.34 13.32 7 14 C6.01 13.67 5.02 13.34 4 13 C2.60955102 9.12137916 2 6.13537997 2 2 C1.34 2 0.68 2 0 2 C0 1.34 0 0.68 0 0 Z " fill="#ADE2B2" transform="translate(540,303)"/>
<path d="M0 0 C0.33 0 0.66 0 1 0 C1.33 4.62 1.66 9.24 2 14 C0.68 13.34 -0.64 12.68 -2 12 C-3.99110401 11.61709538 -5.99100513 11.27395385 -8 11 C-8 10.67 -8 10.34 -8 10 C-5.69 10 -3.38 10 -1 10 C-0.67 6.7 -0.34 3.4 0 0 Z " fill="#9FCEAC" transform="translate(474,191)"/>
<path d="M0 0 C0.99 0.33 1.98 0.66 3 1 C3 2.98 3 4.96 3 7 C4.32 7 5.64 7 7 7 C7 7.66 7 8.32 7 9 C5.35 9 3.7 9 2 9 C2 8.34 2 7.68 2 7 C1.34 7 0.68 7 0 7 C0 4.69 0 2.38 0 0 Z " fill="#1E4355" transform="translate(342,100)"/>
<path d="M0 0 C0.99 0.33 1.98 0.66 3 1 C3 2.98 3 4.96 3 7 C4.32 7 5.64 7 7 7 C7 7.66 7 8.32 7 9 C5.35 9 3.7 9 2 9 C2 8.34 2 7.68 2 7 C1.34 7 0.68 7 0 7 C0 4.69 0 2.38 0 0 Z " fill="#21434E" transform="translate(254,96)"/>
<path d="M0 0 C1.32 0 2.64 0 4 0 C4 0.99 4 1.98 4 3 C2.02 3.33 0.04 3.66 -2 4 C-2 4.66 -2 5.32 -2 6 C-3.32 6 -4.64 6 -6 6 C-6 5.01 -6 4.02 -6 3 C-4.02 2.67 -2.04 2.34 0 2 C0 1.34 0 0.68 0 0 Z " fill="#787878" transform="translate(214,115)"/>
<path d="M0 0 C0.66 0 1.32 0 2 0 C2 1.32 2 2.64 2 4 C4.97 4.495 4.97 4.495 8 5 C7.01 5.495 7.01 5.495 6 6 C6 7.32 6 8.64 6 10 C5.34 10 4.68 10 4 10 C4 8.68 4 7.36 4 6 C2.68 6 1.36 6 0 6 C0 4.02 0 2.04 0 0 Z " fill="#8D986E" transform="translate(512,259)"/>
<path d="M0 0 C0.66 0 1.32 0 2 0 C2 1.98 2 3.96 2 6 C3.65 6.33 5.3 6.66 7 7 C7 7.66 7 8.32 7 9 C5.35 9 3.7 9 2 9 C2 8.34 2 7.68 2 7 C1.34 7 0.68 7 0 7 C0 4.69 0 2.38 0 0 Z " fill="#1E414F" transform="translate(182,138)"/>
<path d="M0 0 C0.33 0 0.66 0 1 0 C1 1.65 1 3.3 1 5 C1.66 5 2.32 5 3 5 C3.33 5.99 3.66 6.98 4 8 C3.34 8 2.68 8 2 8 C1.67 9.32 1.34 10.64 1 12 C1 10.68 1 9.36 1 8 C0.34 8 -0.32 8 -1 8 C-1 7.34 -1 6.68 -1 6 C-1.66 6 -2.32 6 -3 6 C-2.67 4.68 -2.34 3.36 -2 2 C-2 2.99 -2 3.98 -2 5 C-1.34 5 -0.68 5 0 5 C0 3.35 0 1.7 0 0 Z " fill="#B6E4B9" transform="translate(454,167)"/>
<path d="M0 0 C0.99 0 1.98 0 3 0 C3.33 1.98 3.66 3.96 4 6 C4.99 6 5.98 6 7 6 C7 6.66 7 7.32 7 8 C7.66 8.33 8.32 8.66 9 9 C6 10 6 10 3.8125 8.9375 C2 7 2 7 1.75 3.8125 C1.8325 2.884375 1.915 1.95625 2 1 C1.34 0.67 0.68 0.34 0 0 Z " fill="#DCF9E3" transform="translate(573,357)"/>
<path d="M0 0 C2.475 0.495 2.475 0.495 5 1 C5.33 2.65 5.66 4.3 6 6 C4.33388095 6.042721 2.66617115 6.04063832 1 6 C0 5 0 5 -0.0625 2.4375 C-0.041875 1.633125 -0.02125 0.82875 0 0 Z " fill="#36779F" transform="translate(420,255)"/>
<path d="M0 0 C0.66 0 1.32 0 2 0 C2 0.66 2 1.32 2 2 C2.99 2 3.98 2 5 2 C5.33 3.98 5.66 5.96 6 8 C5.34 8 4.68 8 4 8 C4 7.34 4 6.68 4 6 C3.01 6 2.02 6 1 6 C0.67 4.02 0.34 2.04 0 0 Z " fill="#9BD69D" transform="translate(502,245)"/>
<path d="M0 0 C0.99 0.33 1.98 0.66 3 1 C3 1.99 3 2.98 3 4 C3.99 4 4.98 4 6 4 C6 4.99 6 5.98 6 7 C6.66 7 7.32 7 8 7 C8 7.99 8 8.98 8 10 C8.99 10.33 9.98 10.66 11 11 C9.68 11 8.36 11 7 11 C7 10.01 7 9.02 7 8 C6.21625 7.79375 5.4325 7.5875 4.625 7.375 C2 6 2 6 0.6875 2.875 C0.460625 1.92625 0.23375 0.9775 0 0 Z " fill="#DFFBDF" transform="translate(414,109)"/>
<path d="M0 0 C0.99 0 1.98 0 3 0 C3 1.32 3 2.64 3 4 C3.66 4 4.32 4 5 4 C5.33 4.99 5.66 5.98 6 7 C5.34 7 4.68 7 4 7 C4 6.34 4 5.68 4 5 C3.34 5 2.68 5 2 5 C1.67 6.32 1.34 7.64 1 9 C0.67 6.03 0.34 3.06 0 0 Z " fill="#D6FBE0" transform="translate(527,287)"/>
<path d="M0 0 C1.32 0 2.64 0 4 0 C4 1.98 4 3.96 4 6 C2.68 6 1.36 6 0 6 C0 4.02 0 2.04 0 0 Z " fill="#1581B4" transform="translate(273,254)"/>
<path d="M0 0 C1.65 0 3.3 0 5 0 C5 0.66 5 1.32 5 2 C5.66 2 6.32 2 7 2 C7 3.65 7 5.3 7 7 C6.34 7 5.68 7 5 7 C4.731875 6.360625 4.46375 5.72125 4.1875 5.0625 C3.11332248 2.66868314 3.11332248 2.66868314 0 2 C0 1.34 0 0.68 0 0 Z " fill="#26425F" transform="translate(361,255)"/>
<path d="M0 0 C1.32 0 2.64 0 4 0 C4 1.98 4 3.96 4 6 C2.68 6 1.36 6 0 6 C0 4.02 0 2.04 0 0 Z " fill="#1381BA" transform="translate(197,254)"/>
<path d="M0 0 C2.475 0.495 2.475 0.495 5 1 C5.66 3.64 6.32 6.28 7 9 C6.34 9 5.68 9 5 9 C3 6 3 6 3 3 C2.34 3 1.68 3 1 3 C0.67 2.01 0.34 1.02 0 0 Z " fill="#D8F9DF" transform="translate(479,208)"/>
<path d="M0 0 C1.32 0 2.64 0 4 0 C4 1.98 4 3.96 4 6 C2.68 6 1.36 6 0 6 C0 4.02 0 2.04 0 0 Z " fill="#237EA1" transform="translate(135,192)"/>
<path d="M0 0 C1.32 0 2.64 0 4 0 C4 1.98 4 3.96 4 6 C2.68 6 1.36 6 0 6 C0 4.02 0 2.04 0 0 Z " fill="#289183" transform="translate(467,192)"/>
<path d="M0 0 C2.04119788 1.61594832 4.04072937 3.2856382 6 5 C6 5.66 6 6.32 6 7 C3.03 6.505 3.03 6.505 0 6 C-0.38218767 4.34385343 -0.71395102 2.67542976 -1 1 C-0.67 0.67 -0.34 0.34 0 0 Z " fill="#E2FDE8" transform="translate(464,181)"/>
<path d="M0 0 C1.32 0 2.64 0 4 0 C4 1.98 4 3.96 4 6 C2.68 6 1.36 6 0 6 C0 4.02 0 2.04 0 0 Z " fill="#1382B2" transform="translate(185,138)"/>
<path d="M0 0 C1.32 0 2.64 0 4 0 C4 1.98 4 3.96 4 6 C2.68 6 1.36 6 0 6 C0 4.02 0 2.04 0 0 Z " fill="#217EA1" transform="translate(345,100)"/>
<path d="M0 0 C1.32 0 2.64 0 4 0 C4 1.98 4 3.96 4 6 C2.68 6 1.36 6 0 6 C0 4.02 0 2.04 0 0 Z " fill="#237DA2" transform="translate(257,96)"/>
<path d="M0 0 C2.64 0 5.28 0 8 0 C7.67 1.32 7.34 2.64 7 4 C5.02 4 3.04 4 1 4 C0.67 2.68 0.34 1.36 0 0 Z " fill="#543442" transform="translate(359,263)"/>
<path d="M0 0 C0.33 0.66 0.66 1.32 1 2 C2.32 2 3.64 2 5 2 C5.33 4.64 5.66 7.28 6 10 C5.34 10 4.68 10 4 10 C3.71125 9.195625 3.4225 8.39125 3.125 7.5625 C2.26737432 4.8673532 2.26737432 4.8673532 0 4 C0 2.68 0 1.36 0 0 Z " fill="#D6F6DC" transform="translate(540,299)"/>
<path d="M0 0 C2.64 0.33 5.28 0.66 8 1 C8 1.99 8 2.98 8 4 C6.02 4 4.04 4 2 4 C2 3.34 2 2.68 2 2 C1.34 2 0.68 2 0 2 C0 1.34 0 0.68 0 0 Z " fill="#6E7270" transform="translate(368,105)"/>
<path d="M0 0 C0.99 0 1.98 0 3 0 C3 2.31 3 4.62 3 7 C2.01 7 1.02 7 0 7 C0 4.69 0 2.38 0 0 Z " fill="#FEF9C4" transform="translate(423,144)"/>
<path d="M0 0 C0.99 0.33 1.98 0.66 3 1 C3.33 2.98 3.66 4.96 4 7 C5.32 7 6.64 7 8 7 C8 7.99 8 8.98 8 10 C5.6875 9.5 5.6875 9.5 3 8 C1.65780705 5.4309588 0.79574295 2.78186561 0 0 Z " fill="#DCF9DF" transform="translate(393,77)"/>
<path d="M0 0 C0.66 0 1.32 0 2 0 C1.67 1.65 1.34 3.3 1 5 C-0.65 5.33 -2.3 5.66 -4 6 C-3.34 4.68 -2.68 3.36 -2 2 C-1.34 2 -0.68 2 0 2 C0 1.34 0 0.68 0 0 Z " fill="#888888" transform="translate(158,163)"/>
<path d="M0 0 C0.99 0 1.98 0 3 0 C3 0.66 3 1.32 3 2 C3.66 2 4.32 2 5 2 C5 3.65 5 5.3 5 7 C4.34 7 3.68 7 3 7 C0 2.61538462 0 2.61538462 0 0 Z " fill="#508655" transform="translate(449,165)"/>
<path d="M0 0 C1.98 0 3.96 0 6 0 C6 0.99 6 1.98 6 3 C4.02 3 2.04 3 0 3 C0 2.01 0 1.02 0 0 Z " fill="#7A222A" transform="translate(420,262)"/>
<path d="M0 0 C0.99 0 1.98 0 3 0 C3 1.98 3 3.96 3 6 C2.01 6 1.02 6 0 6 C0 4.02 0 2.04 0 0 Z " fill="#1384AC" transform="translate(421,134)"/>
<path d="M0 0 C0.33 0.99 0.66 1.98 1 3 C2.32 3 3.64 3 5 3 C5.33 5.31 5.66 7.62 6 10 C5.34 10 4.68 10 4 10 C3.71125 9.195625 3.4225 8.39125 3.125 7.5625 C2.26737432 4.8673532 2.26737432 4.8673532 0 4 C0 2.68 0 1.36 0 0 Z " fill="#D3F4D7" transform="translate(404,93)"/>
<path d="M0 0 C0.99 0 1.98 0 3 0 C3.33 1.98 3.66 3.96 4 6 C3.34 6 2.68 6 2 6 C2 5.34 2 4.68 2 4 C1.34 4 0.68 4 0 4 C0 2.68 0 1.36 0 0 Z " fill="#91D29E" transform="translate(524,277)"/>
<path d="M0 0 C0.99 0 1.98 0 3 0 C3.33 1.98 3.66 3.96 4 6 C3.34 6 2.68 6 2 6 C2 5.34 2 4.68 2 4 C1.34 4 0.68 4 0 4 C0 2.68 0 1.36 0 0 Z " fill="#95D1A7" transform="translate(508,253)"/>
<path d="M0 0 C1.98 0.66 3.96 1.32 6 2 C6 3.32 6 4.64 6 6 C5.01 6 4.02 6 3 6 C3 5.01 3 4.02 3 3 C2.01 2.67 1.02 2.34 0 2 C0 1.34 0 0.68 0 0 Z " fill="#ABDBB6" transform="translate(496,239)"/>
<path d="M0 0 C0.99 0 1.98 0 3 0 C3.33 1.98 3.66 3.96 4 6 C2.68 5.34 1.36 4.68 0 4 C0 2.68 0 1.36 0 0 Z " fill="#94D19B" transform="translate(476,205)"/>
<path d="M0 0 C0.99 0 1.98 0 3 0 C3.33 1.98 3.66 3.96 4 6 C3.34 6 2.68 6 2 6 C2 5.34 2 4.68 2 4 C1.34 4 0.68 4 0 4 C0 2.68 0 1.36 0 0 Z " fill="#94D39A" transform="translate(440,151)"/>
<path d="M0 0 C0.99 0 1.98 0 3 0 C3.33 1.98 3.66 3.96 4 6 C3.34 6 2.68 6 2 6 C2 5.34 2 4.68 2 4 C1.34 4 0.68 4 0 4 C0 2.68 0 1.36 0 0 Z " fill="#95D49C" transform="translate(436,145)"/>
<path d="M0 0 C1.32 0 2.64 0 4 0 C4 0.66 4 1.32 4 2 C4.66 2 5.32 2 6 2 C6 2.66 6 3.32 6 4 C3.03 3.505 3.03 3.505 0 3 C0 2.01 0 1.02 0 0 Z " fill="#78797A" transform="translate(392,117)"/>
</svg>
